<?xml version="1.0" encoding="UTF-8"?>
<!-- Generator: Adobe Illustrator 25.2.3, SVG Export Plug-In . SVG Version: 6.00 Build 0)  -->
<svg xmlns="http://www.w3.org/2000/svg" xmlns:xlink="http://www.w3.org/1999/xlink" version="1.1" id="Capa_1" x="0px" y="0px" viewBox="0 0 512 512" style="enable-background:new 0 0 512 512;" xml:space="preserve" width="512" height="512">
<g>
	<path style="fill:#9BEFE6;" d="M303.873,21.155C216.46,36.681,125.485,92.993,97.416,181.379   c-16.038,50.502-8.406,114.756,34.171,150.066c26.098,21.643,61.012,31.684,93.549,39.438   c52.176,12.433,110.709,17.851,161.579-4.337c44.665-19.481,82.082-59.8,94.934-107.145   c15.176-55.905,4.485-117.329-25.512-166.503C422.353,37.51,369.082,9.573,303.873,21.155z"/>
	<g>
		<polygon style="fill:#AE312F;" points="313.999,257.096 323.182,297.864 375.633,271.399 353.101,254.345   "/>
		<g>
			<polygon style="fill:#AE312F;" points="108.248,380.484 116.548,423.297 244.94,512 422.816,329.716 465.26,344.582      467.731,311.075 427.842,288.623 387.285,314.433 225.057,425.143    "/>
			<polygon style="fill:#FF5555;" points="421.025,297.143 238.109,467.247 108.248,380.484 346.641,269.755 314.221,257.818      474.857,202.609 467.454,315.286    "/>
		</g>
	</g>
	<g>
		<g>
			<g>
				<path style="fill:#FF9C3D;" d="M461.026,190.365c-6.566,9.801-22.351,0.141-29.325-3.943      c-10.791-6.314-21.016-13.571-32.058-19.477c-0.455-0.267-0.927-0.503-1.398-0.754c-3.487-1.838-7.037-3.534-10.634-5.136      c-11.953-5.309-24.424-9.519-36.912-13.461c0,0-44.828-43.132,19.445-34.179c8.906,1.241,17.152,2.874,24.754,4.838      c4.178,1.068,8.152,2.23,11.953,3.487c8.78,2.875,16.571,6.189,23.435,9.754c5.387,2.811,10.21,5.764,14.482,8.796      c14.639,10.335,22.964,21.503,26.246,30.032C477.942,188.417,461.026,190.365,461.026,190.365z"/>
			</g>
			<g style="opacity:0.2;">
				<path style="fill:#AE312F;" d="M461.026,190.365c-6.566,9.801-22.351,0.141-29.325-3.943      c-10.791-6.314-21.016-13.571-32.058-19.477c-0.455-0.267-0.927-0.503-1.398-0.754c-3.487-1.838-7.037-3.534-10.634-5.136      c-11.953-5.309-24.424-9.519-36.912-13.461c0,0-44.828-43.132,19.445-34.179c8.906,1.241,17.152,2.874,24.754,4.838      c4.178,1.068,8.152,2.23,11.953,3.487c8.78,2.875,16.571,6.189,23.435,9.754c5.387,2.811,10.21,5.764,14.482,8.796      c14.639,10.335,22.964,21.503,26.246,30.032C477.942,188.417,461.026,190.365,461.026,190.365z"/>
			</g>
		</g>
		<g>
			<path style="fill:#AE312F;" d="M461.025,190.358c-1.249-3.06-2.309-5.933-3.78-8.561c-0.728-1.31-1.584-2.507-2.548-3.648     c-1.002-1.115-2.178-2.041-3.542-3.031c1.655,0.07,3.34,0.666,4.736,1.692c1.39,1.03,2.498,2.395,3.358,3.863     c0.808,1.499,1.383,3.094,1.686,4.732C461.239,187.037,461.343,188.712,461.025,190.358z"/>
		</g>
		<g>
			<path style="fill:#AE312F;" d="M470.844,183.605l-1.615-4.04c-0.546-1.291-1.051-2.569-1.704-3.747     c-0.619-1.195-1.349-2.289-2.178-3.339c-0.876-1.011-1.898-1.879-3.133-2.8c1.515-0.003,3.068,0.541,4.349,1.481     c1.268,0.955,2.249,2.231,2.996,3.59c0.709,1.383,1.174,2.854,1.397,4.351C471.177,180.592,471.211,182.117,470.844,183.605z"/>
		</g>
		<g>
			<path style="fill:#AE312F;" d="M406.852,121.74c-2.199,0.676-4.272,1.775-6.095,3.189c-2.356,1.838-4.461,4.319-7.414,4.791     c-0.943,0.157-2.01,0.031-2.639-0.691c-0.644-0.738-0.581-1.853-0.377-2.827c0.597-2.89,2.278-5.702,4.571-7.948     C399.077,119.322,403.051,120.484,406.852,121.74z"/>
		</g>
		<g>
			<path style="fill:#AE312F;" d="M405.093,148.443c-1.288,2.23-2.435,4.492-3.299,6.927c-1.335,3.707-2.026,7.634-2.152,11.576     c-0.455-0.267-0.927-0.503-1.398-0.754c-3.487-1.838-7.037-3.534-10.634-5.136c1.445-4.241,3.173-8.388,5.278-12.361     c2.058-3.864,4.979-7.916,9.613-8.623c1.508-0.236,3.126,0.173,4.021,1.492C408.03,143.825,406.24,146.479,405.093,148.443z"/>
		</g>
		<g>
			<path style="fill:#AE312F;" d="M444.769,140.291c-1.461,0.251-2.969,0.393-4.398,0.785c-5.105,1.429-8.858,5.906-13.822,7.759     c-1.665,0.613-3.581,0.911-5.152,0.094c-2.01-1.037-2.827-3.644-2.372-5.859c0.455-2.215,1.901-4.084,3.487-5.702     c2.277-2.325,4.9-4.319,7.775-5.874C435.675,134.306,440.497,137.259,444.769,140.291z"/>
		</g>
		<g>
			<path style="fill:#FF9C3D;" d="M383.72,79.561c-0.066-0.608-0.148-1.207-0.24-1.821c-0.19-1.321-0.42-2.638-0.704-3.953     c-0.014-0.122-0.039-0.246-0.066-0.37c-0.563-2.59-1.285-5.174-2.216-7.712c-0.233-0.631-0.467-1.262-0.728-1.886     c-3.697-8.982-10.133-17.38-20.887-24.123c0.077-0.115,0.158-0.243,0.223-0.361c3.403-5.799,5.493-16.092,4.6-22.106     c-0.245-1.676-0.723-3.007-1.458-3.826c-0.286-0.326-0.607-0.553-0.981-0.713c-5.96-2.475-11.89-0.072-16.242,4.004     c-2.993,2.799-5.413,6.487-8.685,8.988c-0.251,0.183-2.376,1.837-3.997,2.925l-0.384,0.247c-2.332-0.569-4.751-1.105-7.286-1.586     c-0.924-0.186-1.878-0.352-2.844-0.521c-0.267-0.045-0.548-0.092-0.828-0.139c-8.663-1.448-16.814-2.455-24.437-3.031     c-1.767-0.131-3.512-0.243-5.221-0.335l-0.013-0.003c-4.177-0.215-8.175-0.286-12.017-0.218c-0.407-0.009-0.82,0.008-1.217,0.014     c-2.639,0.058-5.181,0.192-7.656,0.379c0-0.004,0-0.008,0-0.012c0.088-11.227-7.952-22.717-12.419-23.364l-0.013-0.003     c-4.929-0.708-8.903,9.509-13.528,17.116c-4.551,7.505-17.507,22.461-17.899,22.931c0.002,0,0.012,0,0.014,0     c-2.929,3.058-5.274,6.493-7.006,10.318c-0.17,0.359-0.327,0.721-0.485,1.083c-0.249,0.606-0.499,1.212-0.733,1.808     c-0.143,0.352-0.269,0.694-0.411,1.047c-1.792,4.695-3.131,9.368-3.965,13.967l-0.019,0.089     c-0.138,0.762-0.264,1.527-0.376,2.294c-0.227,1.601-0.395,3.175-0.497,4.75c-0.369,5.504,0.067,10.878,1.388,16.073     c1.697,6.699,4.886,13.084,9.785,19.009c-11.149,1.253-44.461,5.702-74.403,16.813c-3.534,1.304-7.021,2.702-10.414,4.21     c-1.068,0.471-2.136,0.942-3.22,1.398c-8.89,3.927-17.922,7.948-26.074,13.21c-4.822,3.126-8.906,7.304-8.544,13.461     c0.188,3.471,2.89,6.22,6.141,7.225c0,0,5.969,10.131,22.241,9.738c6.979-0.166,20.033-3.044,34.715-6.294     c-2.342,4.65-4.433,9.207-6.27,13.661c-2.183,5.325-4.021,10.524-5.544,15.644c-1.492,5.026-2.67,9.974-3.55,14.859     c-1.194,6.424-1.869,12.754-2.104,19.037c-0.487,12.519,0.769,24.896,3.298,37.603c1.162,5.812,2.592,11.702,4.241,17.702     c0.016,0.047,0.032,0.11,0.047,0.157c1.854,6.691,4.587,12.676,7.744,17.953c3.88,6.487,8.403,11.906,12.707,16.241     c8.686,8.78,16.524,13.194,16.524,13.194c-3.549,11.686-10.398,22.822,4.728,26.466c13.367,3.236,40.022,19.665,47.64,13.052     c7.618-6.597-22.084-22.822-29.419-26.372c-7.32-3.55,1.853-11.874,1.853-11.874c6.644-3.44,12.204-8.136,16.273-12.063     c3.345-3.22,5.67-5.921,6.754-6.958c0.22,0.079,0.424,0.157,0.629,0.22c7.445,2.654,12.361,3.079,17.749,3.597     c30.566,3.016,55.933-12.927,75.582-35.325c10.681-12.173,18.848-25.948,24.676-40.697c0.205-0.503,0.393-1.005,0.581-1.508     c1.068-2.749,2.042-5.529,2.937-8.34c0-0.016,0.016-0.031,0.016-0.047c0.88-2.733,1.681-5.497,2.419-8.277     c7.93-30.388,7.204-63.507-0.453-94.497c1.141-0.227,1.767-0.363,1.767-0.363s1.348-1.108,3.319-3.27     c4.046-4.433,10.692-13.333,13.76-26.385c0.181-0.779,0.353-1.574,0.515-2.384c0.343-1.773,0.622-3.614,0.811-5.527     c0.004-0.078,0.017-0.142,0.021-0.22c0.158-1.524,0.26-3.099,0.292-4.715c0.008-0.341,0.015-0.683,0.013-1.04     c0.005-0.329,0.013-0.67,0.008-1.015C384.249,85.734,384.083,82.649,383.72,79.561z"/>
		</g>
		<g>
			<path style="fill:#AE312F;" d="M262.386,24.317c4.548-0.827,7.876-0.9,8.051-0.915c0.087-11.227-7.952-22.717-12.419-23.364     l-0.013-0.003c-1.157,2.364-2.521,5.197-2.028,12.023c0.053,0.671,0.058,1.319,0.041,1.949     C255.811,23.346,258.057,25.111,262.386,24.317z"/>
		</g>
		<g>
			<path style="fill:#AE312F;" d="M354.794,37.283c1.621,0.746,3.141,1.47,4.309,2.052c3.403-5.799,5.493-16.092,4.6-22.106     c-0.245-1.676-0.723-3.007-1.458-3.826c0,0-2.474,0.641-5.217,5.764c-0.997,1.87-1.901,3.668-2.887,5.303     C351.802,28.335,349.517,34.824,354.794,37.283z"/>
		</g>
		<g>
			<path style="fill:#AE312F;" d="M296.56,23.577c4.549,5.219,7.473,12.648,9.837,18.266c1.302,3.079,2.443,6.23,3.473,9.408     c0.779,2.386,2.431,4.881,5.009,5.596c3.238,0.897,6.473-0.82,8.5-3.3c2.542-3.094,3.157-7.106,3.088-11.002     c-0.103-5.513-1.84-10.983-4.641-15.798c-0.267-0.045-0.548-0.092-0.828-0.139C312.335,25.16,304.184,24.153,296.56,23.577z"/>
		</g>
		<g>
			<path style="fill:#AE312F;" d="M279.31,23.021c1.17,1.612,2.484,3.414,3.42,4.764c2.956,4.281,5.884,10.101,8.472,11.015     c5.406,1.919,8.327-3.231,5.396-9.223c-1.338-2.731-3.403-4.84-5.258-6.336l-0.013-0.003     C287.15,23.023,283.153,22.953,279.31,23.021z"/>
		</g>
		<g>
			<path style="fill:#AE312F;" d="M324.67,27.269c2.423,4.061,4.76,10.663,7.571,12.009c4.236,2.023,8.096-0.998,6.499-3.692     c-1.547-2.617-3.45-4.744-5.142-6.324C330.772,28.533,327.801,27.866,324.67,27.269z"/>
		</g>
		<g>
			<path style="fill:#AE312F;" d="M219.587,50.399c18.997,16.614,28.844,3.653,20.581-0.507c-5.535-2.792-10.295-7.093-13.42-9.985     C223.743,43.007,221.351,46.503,219.587,50.399z"/>
		</g>
		<g>
			<path style="fill:#FFFFFF;" d="M259.993,20.791c0,0,2.482,0.364,3.26-0.061c0.791-0.423-2.961-1.326-2.961-1.326     c2.053-0.402,4.068-2.277,3.433-2.453c-0.645-0.192-3.193,0.974-3.193,0.974c3.004-2.849,2.466-8.245-0.139-8.464     c-1.115-0.095-2.808,2.06-4.374,4.547c-0.208,9.34-7.017,14.773-8.18,15.393c4.797-2.779,10.218-4.288,14.547-5.083     C262.148,22.365,259.993,20.791,259.993,20.791z"/>
		</g>
		<g>
			<path style="fill:#FFFFFF;" d="M354.794,37.283c0.085-2.107-1.439-5.379-1.577-5.659c0.151,0.098,1.73,1.218,2.635,0.939     c0.948-0.297-1.705-2.071-1.705-2.071s2.194,0.659,2.515,0.028c0.331-0.615-1.977-0.928-1.977-0.928     c1.811-0.625,5.651-4.35,3.906-5.928c-1.138-1.024-3.163-0.023-4.451,0.808c-2.339,3.864-5.175,6.789-11.115,7.526     C343.026,31.997,349.517,34.824,354.794,37.283z"/>
		</g>
		<g>
			<path style="fill:#AE312F;" d="M232.492,376.413c-0.095-2.019-0.397-3.503-0.89-5.013c-0.253-0.751-0.569-1.49-0.911-2.279     c-0.349-0.79-0.757-1.583-1.099-2.57c1.976,0.549,3.473,2.155,4.189,4.119C234.416,372.634,234.132,375.076,232.492,376.413z"/>
		</g>
		<g>
			<g>
				<g>
					<g>
						<path style="fill:#FF9C3D;" d="M157.413,244.353l-5.466,13.382c-21.189-0.173-35.639-4.445-46.147-10.712        c-4.477-2.67-8.246-5.702-11.482-8.937c-9.943-9.864-15.188-21.613-21.88-30.676c-0.424-0.597-0.864-1.162-1.304-1.728        c-2.702-3.424-6.031-6.126-9.675-8.309c-4.445-2.67-9.361-4.571-14.121-6.079c-12.848-4.068-24.676-5.278-23.796-10.9        c0.691-4.367,3.408-6.503,6.11-7.524c3.142-1.194,6.283-0.911,6.283-0.911c25.508,2.12,40.21,14.105,51.535,27.958        c4.162,5.073,7.853,10.398,11.466,15.581c2.639,3.801,5.215,7.508,7.9,10.995c6.424,8.372,15.597,12.927,24.377,15.361        c7.429,2.074,14.561,2.623,19.508,2.686C154.822,244.62,157.413,244.353,157.413,244.353z"/>
					</g>
					<g style="opacity:0.2;">
						<path style="fill:#AE312F;" d="M147.255,244.423l1.1,13.242c-21.205-1.064-33.131-5.091-42.555-10.642        c-4.491-2.646-8.246-5.702-11.482-8.937c-9.943-9.864-15.188-21.613-21.88-30.676c-0.424-0.597-0.864-1.162-1.304-1.728        c-2.702-3.424-6.031-6.126-9.675-8.309c-4.445-2.67-9.361-4.571-14.121-6.079c-12.848-4.068-24.676-5.278-23.796-10.9        c0.691-4.367,3.408-6.503,6.11-7.524c3.142-1.194,6.283-0.911,6.283-0.911c25.508,2.12,40.21,14.105,51.535,27.958        c4.162,5.073,7.853,10.398,11.466,15.581c2.639,3.801,5.215,7.508,7.9,10.995c6.424,8.372,15.597,12.927,24.377,15.361        C138.644,243.929,142.307,244.36,147.255,244.423"/>
					</g>
				</g>
				<g>
					<path style="fill:#AE312F;" d="M47.339,191.294c-12.848-4.068-24.676-5.278-23.796-10.9c0.691-4.367,3.408-6.503,6.11-7.524       C54.736,179.121,47.339,191.294,47.339,191.294z"/>
				</g>
				<g>
					<path style="fill:#AE312F;" d="M72.438,207.41c-0.424-0.597-0.864-1.162-1.304-1.728c-2.702-3.424-6.031-6.126-9.675-8.309       c2.152-1.948,5.058-3.628,7.979-2.45C73.506,196.588,74.669,203.624,72.438,207.41z"/>
				</g>
				<g>
					<path style="fill:#AE312F;" d="M98.936,215.499c-3.864,1.681-7.948,2.623-10.335,0.707c-3.989-3.236-2.482-11.765-1.131-16.288       C91.632,204.991,95.324,210.315,98.936,215.499z"/>
				</g>
				<g>
					<path style="fill:#AE312F;" d="M105.8,247.023c-4.477-2.67-8.246-5.702-11.482-8.937c2.576-0.722,5.623-1.005,8.607,0.016       C107.638,239.719,106.931,244.086,105.8,247.023z"/>
				</g>
				<g>
					<path style="fill:#AE312F;" d="M147.255,244.423c-2.12,2.592-6.197,6.307-11.993,5.474c-5.105-0.722-6.911-5.833-7.524-9.116       C135.168,242.855,142.311,244.135,147.255,244.423z"/>
				</g>
			</g>
			<g>
				<g>
					<g>
						<path style="fill:#FF9C3D;" d="M349.146,224.045c0,0,23.877,36.556,17.068,66.846c-6.809,30.29-48.603,41.256-48.603,41.256        s14.985,9.923,21.861,17.756c6.876,7.833,7.92,18.8,2.437,19.323c-5.483,0.522-11.67-14.623-22.938-18.801        c-11.268-4.178-31.457-9.4-27.629-20.367c0,0-31.901-27.156-17.954-43.868C287.337,269.479,349.146,224.045,349.146,224.045z"/>
					</g>
					<g style="opacity:0.2;">
						<path style="fill:#AE312F;" d="M349.146,224.045c0,0,23.877,36.556,17.068,66.846c-6.809,30.29-48.603,41.256-48.603,41.256        s14.985,9.923,21.861,17.756c6.876,7.833,7.92,18.8,2.437,19.323c-5.483,0.522-11.67-14.623-22.938-18.801        c-11.268-4.178-31.457-9.4-27.629-20.367c0,0-31.901-27.156-17.954-43.868C287.337,269.479,349.146,224.045,349.146,224.045z"/>
					</g>
				</g>
				<g>
					<path style="fill:#AE312F;" d="M334.318,363.58l-0.235-3.293c-0.115-1.037-0.2-2.045-0.407-3.035       c-0.167-0.994-0.375-1.986-0.639-2.996c-0.239-1.025-0.573-2.037-0.8-3.228c2.025,1.263,3.283,3.493,3.704,5.835       c0.194,1.179,0.187,2.392-0.076,3.551C335.616,361.567,335.149,362.699,334.318,363.58z"/>
				</g>
			</g>
			<g style="opacity:0.48;">
				<path style="fill:#EA4949;" d="M273.532,110.065c3.808,3.518,3.59,9.587-1.686,11.9c-7.064,3.097-19.203,0.592-24.23-5.36      c-4.244-5.025-0.117-12.464,5.387-13.105c4.652-0.542,9.348,0.549,13.559,2.406C268.521,106.77,271.397,108.093,273.532,110.065      z"/>
			</g>
			<g style="opacity:0.48;">
				<path style="fill:#EA4949;" d="M341.972,117.404c-3.73,2.477-4.482,7.872-0.421,10.786c5.437,3.902,15.986,3.697,21.111-0.728      c4.327-3.735,2.017-10.986-2.492-12.461c-3.811-1.247-7.911-1.061-11.723-0.117      C346.675,115.323,344.062,116.016,341.972,117.404z"/>
			</g>
			<g>
				<path style="fill:#AE312F;" d="M373.475,91.803c3.456,1.049,7.288,0.359,10.78-0.96c0.008-0.341,0.015-0.683,0.013-1.04      c0.005-0.329,0.013-0.67,0.008-1.015c-0.027-3.055-0.193-6.14-0.556-9.227C376.082,84.803,366.999,89.824,373.475,91.803z"/>
			</g>
			<g>
				<path style="fill:#AE312F;" d="M373.558,101.139c2.143,1.69,5.668,2.359,9.059,2.55c0.181-0.779,0.353-1.574,0.515-2.384      c0.343-1.774,0.622-3.614,0.811-5.527c0.003-0.078,0.017-0.142,0.021-0.22C376.807,96.548,369.78,98.159,373.558,101.139z"/>
			</g>
			<g>
				<path style="fill:#AE312F;" d="M376.444,75.971c1.997-0.018,4.213-0.925,6.332-2.184c-0.013-0.122-0.039-0.246-0.065-0.37      c-0.563-2.59-1.285-5.174-2.216-7.712C375.771,70.771,371.815,76.015,376.444,75.971z"/>
			</g>
			<g style="opacity:0.48;">
				<path style="fill:#AE312F;" d="M256.307,128.516c-1.561-0.857-3.126-1.698-4.658-2.595c-1.536-0.887-3.071-1.779-4.518-2.779      l-0.797-0.551l0.259,0.958c0.129,0.477,0.224,0.997,0.245,1.484c0.028,0.477-0.062,0.995-0.264,1.152      c-0.078,0.076-0.267,0.116-0.409,0.091c-0.109-0.013-0.28-0.122-0.43-0.284c-0.307-0.326-0.565-0.772-0.792-1.224      c-0.45-0.919-0.799-1.911-1.098-2.913c-0.292-0.996-0.559-2.044-0.692-3.023l-0.223-1.642l-0.709,1.489      c-0.341,0.716-0.761,1.441-1.245,2.059c-0.477,0.606-1.112,1.174-1.605,0.983c-0.547-0.157-0.995-0.899-1.274-1.622      c-0.283-0.74-0.487-1.553-0.624-2.342l-0.051-0.292l-0.274-0.04c-1.87-0.278-3.755-0.806-5.541-1.512      c-0.904-0.336-1.784-0.739-2.637-1.193c-0.86-0.446-1.667-0.984-2.468-1.539c0.733,0.639,1.497,1.258,2.335,1.767      c0.827,0.525,1.687,1.003,2.58,1.415c1.795,0.81,3.657,1.431,5.621,1.819l-0.324-0.333c0.098,0.878,0.276,1.719,0.588,2.556      c0.157,0.416,0.346,0.829,0.618,1.221c0.268,0.384,0.647,0.777,1.196,0.952c0.264,0.084,0.57,0.102,0.857,0.036      c0.279-0.066,0.515-0.189,0.723-0.326c0.412-0.279,0.725-0.616,1.013-0.962c0.565-0.702,1.006-1.437,1.404-2.235l-0.932-0.153      c0.154,1.133,0.452,2.148,0.768,3.191c0.327,1.033,0.7,2.052,1.202,3.041c0.26,0.492,0.539,0.981,0.969,1.429      c0.218,0.215,0.494,0.45,0.917,0.521c0.382,0.05,0.76-0.023,1.091-0.298c0.6-0.604,0.526-1.291,0.502-1.842      c-0.054-0.576-0.178-1.106-0.352-1.649l-0.538,0.407c1.53,0.946,3.102,1.791,4.701,2.578      C253.047,127.087,254.658,127.844,256.307,128.516z"/>
			</g>
			<g style="opacity:0.48;">
				<path style="fill:#AE312F;" d="M373.012,124.914c-1.188,1.469-2.38,2.931-3.637,4.33c-0.619,0.706-1.257,1.395-1.919,2.05      c-0.661,0.645-1.368,1.285-2.112,1.694l-0.185,0.102l-0.025,0.227c-0.088,0.79-0.227,1.609-0.469,2.355      c-0.222,0.726-0.66,1.502-1.116,1.529c-0.217,0.018-0.329-0.035-0.474-0.34c-0.124-0.292-0.182-0.677-0.21-1.06      c-0.051-0.774,0.023-1.602,0.129-2.384l0.272-2.006l-1.159,1.649c-0.5,0.712-1.06,1.416-1.649,2.064      c-0.592,0.644-1.226,1.268-1.921,1.7c-0.342,0.219-0.717,0.374-1.021,0.359c-0.335-0.016-0.602-0.129-0.666-0.386      c-0.174-0.599,0.19-1.546,0.572-2.262l0.498-0.932l-0.936,0.436c-1.351,0.63-2.771,1.157-4.194,1.639      c-1.428,0.479-2.892,0.851-4.398,1.039c1.522,0.008,3.034-0.276,4.517-0.625c1.484-0.367,2.925-0.854,4.357-1.419l-0.437-0.496      c-0.255,0.417-0.46,0.832-0.627,1.293c-0.15,0.459-0.297,0.965-0.15,1.57c0.083,0.295,0.296,0.608,0.577,0.762      c0.138,0.091,0.278,0.153,0.417,0.181c0.138,0.046,0.28,0.075,0.431,0.069c0.605,0.028,1.1-0.203,1.521-0.447      c0.858-0.5,1.532-1.156,2.164-1.835c0.632-0.684,1.206-1.392,1.752-2.154l-0.887-0.358c-0.133,0.87-0.188,1.718-0.129,2.613      c0.041,0.447,0.097,0.902,0.303,1.381c0.067,0.121,0.129,0.242,0.208,0.359c0.108,0.113,0.199,0.237,0.338,0.325      c0.284,0.189,0.631,0.251,0.931,0.202c0.627-0.086,1.045-0.547,1.295-0.941c0.256-0.413,0.407-0.838,0.539-1.262      c0.243-0.853,0.378-1.693,0.428-2.567l-0.21,0.328c0.885-0.552,1.547-1.244,2.201-1.945c0.643-0.707,1.251-1.438,1.838-2.182      C370.916,128.061,372.014,126.52,373.012,124.914z"/>
			</g>
			<g>
				<g>
					<g>
						<path style="fill:#FFFFFF;" d="M255.171,97.324c5.318,4.778,14.311,7.326,21.291,5.626c1.491-0.365,2.909-0.943,4.223-1.768        c5.691-3.616,9.585-10.774,10.488-17.403c0.033-0.151,0.053-0.305,0.073-0.459c0.788-6.707-2.243-13.274-7.653-17.254        c-6.334-4.654-16.341-7.276-23.376-2.75c-2.775,1.79-5.137,4.475-6.898,7.618l-0.013-0.003        C248.582,79.297,248.053,90.917,255.171,97.324z"/>
					</g>
					<g>
						<path style="fill:#AE312F;" d="M251.126,91.528c-0.887-2.208-1.353-4.578-1.435-6.96c-0.077-2.384,0.188-4.777,0.733-7.108        c0.553-2.329,1.402-4.596,2.539-6.721l0.132-0.248l0.293,0.056l0.012,0.003l-0.426,0.192c1.108-2.069,2.484-4.017,4.174-5.691        c1.67-1.673,3.699-3.098,6.002-3.894c4.608-1.64,9.68-1.106,14.149,0.494c2.248,0.82,4.389,1.922,6.368,3.285        c2.011,1.346,3.745,3.123,5.129,5.113c2.79,4.009,3.98,9.009,3.184,13.904l0.011-0.063c-0.687,4.11-2.293,8.01-4.654,11.379        c-1.185,1.681-2.564,3.228-4.139,4.55c-1.561,1.325-3.371,2.42-5.339,3.026c-1.964,0.612-4.014,0.823-6.039,0.781        c-2.027-0.034-4.041-0.324-5.996-0.828c-3.89-1.029-7.644-2.781-10.654-5.475C253.392,95.746,252.016,93.732,251.126,91.528z         M265.861,102.648c3.892,0.896,8.068,0.975,11.808-0.357c1.863-0.666,3.52-1.773,4.968-3.114        c1.452-1.333,2.707-2.873,3.77-4.531c2.118-3.32,3.477-7.123,3.946-10.979l0.011-0.063c0.078-0.45,0.089-1.062,0.134-1.591        c-0.011-0.551,0.023-1.103-0.035-1.652c-0.051-1.1-0.254-2.188-0.516-3.254c-0.266-1.067-0.664-2.095-1.098-3.103        c-0.47-0.993-1.011-1.953-1.64-2.853c-2.517-3.612-6.391-6.137-10.561-7.742c-2.081-0.811-4.273-1.349-6.487-1.535        c-2.209-0.186-4.454-0.043-6.564,0.611c-2.116,0.626-4.029,1.836-5.695,3.358c-1.669,1.513-3.08,3.324-4.242,5.282        l-0.153,0.258l-0.273-0.065l-0.012-0.003l0.425-0.191c-1.194,2.012-2.124,4.19-2.769,6.454        c-0.649,2.262-0.999,4.621-0.972,6.984c0.025,2.358,0.398,4.737,1.28,6.941c0.866,2.203,2.22,4.226,3.984,5.82        C258.21,99.971,261.956,101.748,265.861,102.648z"/>
					</g>
				</g>
				<g>
					<path style="fill:#AE312F;" d="M269.118,97.703c-5.376-0.362-10.767-3.608-12.96-8.645c-3.494-8.026,0.975-18.42,9.242-21.18       c4.438-1.482,9.924-0.825,13.794,1.851c10.342,7.151,5.706,24.277-5.689,27.54C272.101,97.671,270.614,97.804,269.118,97.703z"/>
				</g>
				<g style="opacity:0.21;">
					<path style="fill:#AE312F;" d="M253.318,70.935c25.287-5.919,36.523,10.696,37.854,12.844c0.033-0.151,0.053-0.305,0.073-0.459       c0.788-6.707-2.243-13.274-7.653-17.254c-6.334-4.654-16.341-7.276-23.376-2.75C257.44,65.106,255.079,67.791,253.318,70.935z"/>
				</g>
			</g>
			<g>
				<g>
					<g>
						<path style="fill:#FFFFFF;" d="M332.506,103.765c3.495,6.438,11.538,8.914,18.404,8.7c0.946-0.042,1.877-0.159,2.778-0.369        c10.903-2.499,17.375-17.221,13.378-27.582c-0.392-1.07-0.921-2.094-1.558-3.058c-5.607-8.415-20.038-11.652-28.485-5.77        c-2.035,1.44-3.357,3.738-4.298,5.991c-0.647,1.538-1.189,3.259-1.594,5.072C329.825,92.435,329.903,98.979,332.506,103.765z"/>
					</g>
					<g>
						<path style="fill:#AE312F;" d="M330.372,96.37c-0.265-2.572-0.163-5.179,0.222-7.743c0.392-2.56,0.985-5.11,1.981-7.535        c0.495-1.212,1.088-2.401,1.862-3.497c0.765-1.08,1.75-2.118,2.914-2.791c2.24-1.486,4.841-2.368,7.49-2.747        c2.653-0.372,5.37-0.289,8.001,0.246c5.229,1.057,10.339,3.79,13.548,8.392c0.774,1.14,1.419,2.411,1.84,3.715        c0.197,0.656,0.423,1.306,0.59,1.968l0.371,2.02c0.321,2.716,0.074,5.448-0.555,8.056c-1.316,5.181-4.211,10.035-8.552,13.177        c-2.152,1.579-4.684,2.596-7.295,3.011c-1.313,0.182-2.634,0.153-3.929,0.055c-1.3-0.088-2.589-0.285-3.858-0.556        c-2.542-0.526-4.998-1.477-7.192-2.845c-1.106-0.674-2.103-1.511-3.018-2.42c-0.903-0.928-1.65-1.991-2.287-3.112        C331.263,101.495,330.629,98.936,330.372,96.37z M334.824,106.846c0.922,0.897,1.924,1.718,3.032,2.376        c2.207,1.329,4.687,2.159,7.207,2.603c1.26,0.239,2.542,0.342,3.82,0.361c1.28,0.025,2.555-0.02,3.79-0.262        c2.46-0.538,4.774-1.624,6.705-3.213c3.905-3.154,6.325-7.877,7.306-12.696c0.507-2.419,0.617-4.911,0.286-7.321l-0.35-1.783        c-0.155-0.584-0.365-1.153-0.542-1.731c-0.382-1.148-0.935-2.196-1.618-3.18c-1.331-1.974-3.176-3.632-5.255-4.913        c-2.079-1.291-4.392-2.248-6.8-2.82c-4.772-1.164-10.109-0.981-14.431,1.53c-2.186,1.138-3.636,3.316-4.724,5.593        c-1.088,2.3-1.852,4.771-2.333,7.293c-0.926,5.006-0.818,10.46,1.589,15.083C333.156,104.879,333.913,105.931,334.824,106.846        z"/>
					</g>
				</g>
				<g>
					<path style="fill:#AE312F;" d="M357.047,103.034c-0.436,0.38-4.479,5.539-13.665,2.911c-9.186-2.627-8.415-14.408-7.104-18.282       c1.31-3.874,5.945-11.901,16.424-9.268C363.181,81.028,364.549,96.503,357.047,103.034z"/>
				</g>
				<g style="opacity:0.21;">
					<path style="fill:#AE312F;" d="M331.132,86.75c12.16-7.329,27.859-4.498,35.934-2.235c-0.392-1.07-0.921-2.094-1.558-3.058       c-5.607-8.415-20.038-11.652-28.485-5.77c-2.035,1.44-3.357,3.738-4.298,5.991C332.078,83.215,331.536,84.937,331.132,86.75z"/>
				</g>
			</g>
			<g>
				<path style="fill:#AE312F;" d="M213.992,68.304l-0.019,0.089c-0.039,0.427-0.101,0.836-0.15,1.248      c7.235,4.637,16.482,8.27,24.657,6.537c3.084-0.654,6.07-2.927,5.655-5.959c-0.174-1.212-0.9-2.372-1.873-3.308      c-2.87-2.784-7.327-4.09-11.187-5.345c-4.389-1.436-9.325-4.494-13.118-7.227C216.165,59.032,214.827,63.706,213.992,68.304z"/>
			</g>
			<g>
				<path style="fill:#AE312F;" d="M213.099,75.437c-0.369,5.504,0.068,10.878,1.388,16.073c5.184,2.03,11.22,2.013,16.433,0.248      c2.322-0.792,4.566-2.38,4.591-5.067c0.042-3.555-4.435-4.891-7.21-5.424C220.771,79.825,215.715,77.137,213.099,75.437z"/>
			</g>
			<g>
				<g>
					<path style="fill:#AE312F;" d="M377.835,127.7c-3.101-1.861-6.327-3.45-9.584-4.974c-3.269-1.496-6.57-2.924-9.997-4.079       c3.1,1.863,6.326,3.452,9.584,4.974C371.108,125.115,374.409,126.543,377.835,127.7z"/>
				</g>
				<g>
					<path style="fill:#AE312F;" d="M381.36,119.452c-3.335-1.04-6.727-1.787-10.132-2.462c-3.411-0.646-6.836-1.218-10.319-1.495       c3.334,1.043,6.726,1.789,10.132,2.462C374.452,118.601,377.877,119.173,381.36,119.452z"/>
				</g>
				<g>
					<path style="fill:#AE312F;" d="M380.961,108.324c-3.453,0.532-6.827,1.353-10.183,2.244c-3.348,0.92-6.676,1.912-9.925,3.195       c3.453-0.53,6.828-1.351,10.182-2.244C374.382,110.596,377.71,109.604,380.961,108.324z"/>
				</g>
			</g>
			<g>
				<g>
					<path style="fill:#AE312F;" d="M312.851,89.553c0,0,3.909-3.669,5.521-2.677c1.612,0.993-4.272,6.553-6.275,6.873       c-2.003,0.32-5.323-6.905-4.111-8.041C309.198,84.573,312.851,89.553,312.851,89.553z"/>
				</g>
				<g>
					<path style="fill:#AE312F;" d="M302.9,115.906c0.898-1.847,1.729-3.723,2.585-5.588l2.446-5.649       c0.819-1.883,1.56-3.797,2.317-5.707c0.739-1.921,1.492-3.823,2.1-5.828l-0.959-0.071c0.514,3.933,0.876,7.896,1.215,11.853       c0.166,1.979,0.312,3.962,0.395,5.946c0.114,1.985,0.154,3.971,0.132,5.964c0.241-1.98,0.298-3.978,0.344-5.973       c0.018-1.996-0.049-3.991-0.123-5.984c-0.065-1.995-0.237-3.983-0.4-5.97c-0.171-1.988-0.361-3.97-0.59-5.958l-0.275-2.387       l-0.685,2.316c-0.569,1.924-1.286,3.856-1.994,5.771l-2.185,5.744l-2.188,5.748L302.9,115.906z"/>
				</g>
				<g style="opacity:0.48;">
					<path style="fill:#AE312F;" d="M320.548,95.519c3.113,1.182,5.927,3.59,7.349,6.94c2.061,4.856,1.806,10.564-2.169,14.18       c-2.467,2.244-5.642,3.216-8.759,3.645c-5.972,0.821-11.962,1.214-17.635-1.223c-2.057-0.884-4.041-2.094-5.572-3.875       c-2.346-2.73-3.459-6.765-2.915-10.577c0.543-3.812,2.729-7.313,5.73-9.177c3.692-2.293,8.77-2.492,12.823-1.895       C313.01,94.069,317.126,94.219,320.548,95.519z"/>
				</g>
			</g>
			<g>
				<g>
					<path style="fill:#AE312F;" d="M252.987,109.544c-3.598-0.359-7.194-0.42-10.789-0.408c-3.595,0.042-7.19,0.159-10.782,0.577       c3.598,0.362,7.194,0.422,10.79,0.408C245.8,110.077,249.395,109.96,252.987,109.544z"/>
				</g>
				<g>
					<path style="fill:#AE312F;" d="M231.607,100.746c3.287,1.182,6.644,2.074,10.017,2.895c3.38,0.792,6.778,1.511,10.246,1.937       c-3.287-1.184-6.643-2.076-10.017-2.895C238.471,101.893,235.074,101.174,231.607,100.746z"/>
				</g>
				<g>
					<path style="fill:#AE312F;" d="M236.561,90.773c2.432,2.507,5.055,4.784,7.724,7.005c2.688,2.197,5.423,4.337,8.35,6.245       c-2.431-2.509-5.053-4.786-7.724-7.005C242.222,94.821,239.486,92.682,236.561,90.773z"/>
				</g>
			</g>
			<g>
				<path style="fill:#AE312F;" d="M116.451,173.499c0.3-1.688,1.051-3.254,1.994-4.675c0.942-1.432,2.157-2.683,3.519-3.754      c1.375-1.053,2.939-1.887,4.609-2.359c1.644-0.541,3.418-0.612,5.087-0.375c-1.565,0.716-3.046,1.249-4.412,2.037      c-1.37,0.746-2.683,1.551-3.888,2.521C120.881,168.758,118.728,171.008,116.451,173.499z"/>
			</g>
			<g>
				<path style="fill:#AE312F;" d="M107.759,166.831c-0.413-1.467-0.356-3.02-0.039-4.511c0.311-1.502,0.976-2.938,1.884-4.216      c0.925-1.263,2.13-2.352,3.535-3.031c1.361-0.754,2.92-1.044,4.414-1.017c-1.24,0.898-2.423,1.596-3.423,2.513      c-1.021,0.867-1.926,1.813-2.671,2.892C109.884,161.567,108.828,164.039,107.759,166.831z"/>
			</g>
			<g>
				<path style="fill:#FFC792;" d="M360.831,237.062c-0.503,2.827-1.162,5.45-1.979,7.806c-0.189,0.503-0.377,1.005-0.581,1.508      c-5.827,14.749-13.995,28.524-24.676,40.697c-19.65,22.398-45.016,38.341-75.582,35.325c-5.388-0.518-10.304-0.942-17.749-3.597      c21.361-24.063,26.231-55.006,9.408-74.122c-1.115-1.272-2.325-2.419-3.581-3.424c6.157-2.89,13.524-7.885,16.225-15.833      c4.963-14.623,9.88-55.744,55.525-51.629C358.003,177.391,365.04,213.674,360.831,237.062z"/>
			</g>
			<g style="opacity:0.48;">
				<g>
					<path style="fill:#AE312F;" d="M219.593,336.33c5.635-3.952,11.08-8.214,15.7-13.287c4.888-4.803,9.136-10.212,12.701-16.019       c3.526-5.822,6.482-12.006,8.343-18.532c1.871-6.505,2.699-13.328,2.057-20.021c-0.562-6.686-2.651-13.253-6.317-18.876       c-1.92-2.741-3.926-5.478-6.555-7.522c-1.38-0.926-2.638-2.046-4.159-2.759l-2.194-1.214l-2.334-0.942       c-6.268-2.504-13.219-3.004-20.017-2.791c-6.834,0.271-13.656,1.411-20.282,3.291c6.478-2.38,13.309-3.759,20.214-4.416       c6.897-0.442,14.031-0.159,20.697,2.257l2.486,0.919l2.366,1.212c1.626,0.731,2.989,1.915,4.469,2.895       c2.857,2.187,5.015,5.058,7.053,7.915c3.927,5.891,6.211,12.81,6.859,19.825c1.148,14.142-3.629,28.109-11.199,39.7       c-3.824,5.815-8.296,11.184-13.403,15.876C231.138,328.698,225.511,332.811,219.593,336.33z"/>
				</g>
			</g>
			<g style="opacity:0.48;">
				<g>
					<path style="fill:#AE312F;" d="M311.7,198.734c1.232-1.102,2.573-2.075,4.016-2.931c0.724-0.426,1.478-0.821,2.336-1.088       c0.429-0.128,0.891-0.225,1.423-0.198c0.252-0.013,0.557,0.106,0.837,0.192c0.344,0.152,0.673,0.551,0.746,0.949       c0.093,1.448-0.543,2.045-0.962,2.833c-0.481,0.726-1,1.399-1.537,2.048c-1.072,1.308-2.236,2.482-3.446,3.662l-0.787-1.835       c1.982-0.176,3.918-0.178,5.923,0.002c1.003,0.112,2.015,0.25,3.073,0.616c0.527,0.205,1.083,0.449,1.624,0.943       c0.538,0.486,1.025,1.348,0.796,2.378c-0.284,0.914-0.899,1.403-1.384,1.717c-0.508,0.329-1.003,0.533-1.497,0.738       c-0.981,0.351-1.958,0.586-2.926,0.779c-1.942,0.38-3.859,0.597-5.821,0.695l0.779-1.062c0.399,2.255,0.596,4.488,0.58,6.753       c-0.073,2.237-0.241,4.576-1.249,6.596c0.292-1.079,0.36-2.179,0.388-3.27c0.019-1.093-0.081-2.187-0.215-3.271       c-0.246-2.165-0.687-4.337-1.203-6.42l-0.229-0.924l1.008-0.14c1.842-0.255,3.718-0.567,5.511-0.996       c0.898-0.216,1.766-0.493,2.579-0.799c0.765-0.259,1.579-0.89,1.493-0.942c-0.034,0.078,0.019-0.03-0.161-0.169       c-0.164-0.152-0.492-0.316-0.856-0.448c-0.749-0.261-1.637-0.421-2.53-0.528c-1.798-0.198-3.697-0.197-5.528-0.143       l-2.996,0.088l2.208-1.924c1.201-1.046,2.368-2.189,3.486-3.327c0.556-0.574,1.087-1.166,1.561-1.776       c0.446-0.554,0.917-1.382,0.909-1.614c0,0,0.058,0.043,0.034,0.002c-0.112-0.017-0.186-0.109-0.347-0.112       c-0.286-0.049-0.65-0.029-1.013,0.043c-0.735,0.127-1.504,0.374-2.247,0.681C314.583,197.145,313.136,197.926,311.7,198.734z"/>
				</g>
			</g>
			<g>
				<path style="fill:#AE312F;" d="M159.749,144.594c-0.503,1.634-2.592,2.309-4.225,1.838c-1.633-0.471-2.89-1.759-4.053-3.016      c-2.513-2.733-4.963-5.623-8.105-7.602c-2.199-1.382-4.634-2.262-7.131-2.874c1.083-0.455,2.152-0.927,3.22-1.398      c3.393-1.508,6.88-2.906,10.414-4.209c4.932,3.597,8.497,9.031,9.801,15.016C159.827,143.086,159.953,143.872,159.749,144.594z"/>
			</g>
			<g>
				<path style="fill:#AE312F;" d="M183.749,166.16c0.11-1.744-0.047-3.503-0.33-5.199c-0.518-3.189-1.492-6.299-2.152-9.471      c-0.471-2.325-0.644-5.105,1.084-6.738c1.461-1.366,3.817-1.366,5.608-0.503s3.141,2.435,4.351,4.005      c2.183,2.812,4.131,5.796,5.827,8.921c1.005,1.869,1.948,3.801,2.592,5.827C195.262,163.883,189.514,164.982,183.749,166.16z"/>
			</g>
			<g style="opacity:0.48;">
				<g>
					<path style="fill:#AE312F;" d="M218.158,160.981l-14.148,2.388c-4.715,0.766-9.425,1.571-14.096,2.5       c-9.288,1.897-18.556,4.423-27.879,6.555c-4.675,1.028-9.361,2.024-14.073,2.923c-4.717,0.874-9.435,1.775-14.3,2.049       c-1.222,0.056-2.439,0.108-3.723-0.039c-1.202-0.152-2.397-0.33-3.588-0.544c-2.377-0.439-4.741-0.987-7.033-1.773       c-2.287-0.792-4.522-1.772-6.571-3.07c-2.054-1.27-3.872-3.014-4.988-5.138c2.718,4.036,7.397,5.931,11.875,7.18       c2.278,0.617,4.596,1.094,6.938,1.413c1.17,0.16,2.347,0.285,3.522,0.384c1.1,0.079,2.279-0.016,3.439-0.124       c9.357-1.146,18.709-3.342,27.993-5.493l13.98-3.167c4.66-1.031,9.325-2.22,14.097-2.905       C199.092,162.664,208.606,161.649,218.158,160.981z"/>
				</g>
			</g>
			<g>
				<path style="fill:#AE312F;" d="M192.435,197.464c-0.911,3.016-4.649,3.942-7.775,4.241c-10.618,1.021-21.503,0.66-31.76-2.12      c1.523-5.121,3.362-10.319,5.545-15.644c3.723,1.194,7.445,2.592,11.011,2.953c6.503,0.675,13.445,0.235,19.068,3.55      C191.006,191.92,193.252,194.7,192.435,197.464z"/>
			</g>
			<g>
				<path style="fill:#AE312F;" d="M180.514,228.863c-0.063,2.921-3.094,4.822-5.874,5.717c-8.827,2.859-18.314,1.335-27.393-1.1      c0.235-6.283,0.911-12.613,2.104-19.037c1.775,0.644,3.424,1.272,4.775,1.712c6.409,2.089,12.833,4.178,19.257,6.267      C176.666,223.475,180.592,225.407,180.514,228.863z"/>
			</g>
			<g>
				<path style="fill:#AE312F;" d="M185.948,270.91c-0.974,2.592-2.984,4.681-5.121,6.471c-7.367,6.204-16.461,9.723-25.995,11.56      c-0.016-0.047-0.031-0.11-0.047-0.157c-1.649-6-3.079-11.89-4.241-17.702c1.869-0.392,3.707-0.911,5.545-1.523      c5.796-1.948,11.262-4.681,16.964-6.864c3.848-1.477,8.749-2.497,11.655,0.424C186.687,265.083,186.938,268.303,185.948,270.91z      "/>
			</g>
			<g>
				<path style="fill:#AE312F;" d="M186.514,311.466c-2.325,4.492-6.173,7.995-10.257,10.979c-0.314,0.236-0.644,0.471-0.974,0.691      c-4.304-4.335-8.827-9.754-12.707-16.241c5.026-3.864,10.084-7.665,16.382-8.325c2.544-0.251,5.34,0.157,7.178,1.963      C188.917,303.267,188.32,307.995,186.514,311.466z"/>
			</g>
			<g>
				<g>
					<polygon style="fill:#FF5555;" points="362.712,96.659 363.567,115.476 350.672,106.484 348.106,104.708 334.333,109.906        330.473,111.353 335.934,93.325 324.178,78.587 343.018,78.214 353.391,62.489 357.514,74.376 359.554,80.276 366.331,82.14        377.735,85.276      "/>
					<path style="fill:#AE312F;" d="M364.822,117.752l-16.874-11.756l-19.25,7.249l5.96-19.675l-12.831-16.087l20.565-0.406       l11.324-17.165l6.728,19.417l19.844,5.456L363.888,97.21L364.822,117.752z M348.264,103.419l14.049,9.782l-0.777-17.093       l13.648-10.341l-16.519-4.542l-5.597-16.157l-9.424,14.284l-17.116,0.339l10.68,13.39l-4.961,16.379L348.264,103.419z"/>
				</g>
				<g style="opacity:0.46;">
					<path style="fill:#FFFFFF;" d="M367.03,82.14c-4.255,6.755-10.461,16.558-15.659,24.344l-2.566-1.776l-13.773,5.198       l23.182-35.529l2.04,5.9L367.03,82.14z"/>
				</g>
			</g>
			<g>
				<g>
					<polygon style="fill:#FF5555;" points="293.961,97.424 275.487,93.736 261.996,106.887 260.762,96.438 259.783,88.166        255.088,85.702 243.115,79.383 260.222,71.5 263.415,52.926 274.976,65.425 276.205,66.768 291.988,64.48 294.865,64.073        285.656,80.522      "/>
					<path style="fill:#AE312F;" d="M261.128,109.339l-2.416-20.435l-18.193-9.59l18.673-8.604l3.485-20.275l13.965,15.109       l20.36-2.932l-10.048,17.946l9.067,18.449l-20.165-4.025L261.128,109.339z M245.71,79.452l15.144,7.978l2.01,17.004       l12.253-11.946l16.786,3.351l-7.545-15.353l8.371-14.951l-16.961,2.456l-11.614-12.577l-2.901,16.874L245.71,79.452z"/>
				</g>
				<g style="opacity:0.46;">
					<path style="fill:#FFFFFF;" d="M291.988,64.48c-5.437,5.798-22.428,23.793-31.226,31.959l-0.978-8.272l-4.695-2.464       l19.888-20.277l1.229,1.343L291.988,64.48z"/>
				</g>
			</g>
			<g>
				<g>
					<path style="fill:#6CE0C0;" d="M306.172,139.733c-0.943,1.25-1.974,2.412-3.07,3.487c-6.624,6.536-15.506,11.01-24.849,13.817       c-0.307,0.096-0.896-0.641-1.203-0.554c-0.395,0.113-0.508,1.047-0.902,1.146c-3.18,0.899-6.404,1.579-9.606,2.083       c-0.389,0.071-1.188-2.701-1.577-2.649c-0.334,0.045-0.26,2.915-0.594,2.956c-2.632,0.373-5.241,0.614-7.764,0.746       c-0.68,0.022-1.381,0.066-2.062,0.088c-0.309,0.009-0.917-2.033-1.227-2.03c-0.415,0.004-0.53,2.052-0.945,2.052       c-2.719,0-5.461-0.154-8.158-0.504c-0.374-0.055-0.742-2.337-1.108-2.392c-0.364-0.055-0.725,2.118-1.086,2.063       c-3.816-0.68-7.522-1.799-10.966-3.531c-0.381-0.173-0.843-3.432-1.212-3.632c-0.332-0.18-0.571,2.701-0.893,2.514       c-0.57-0.351-1.14-0.702-1.689-1.074c-2.303-1.557-4.342-3.378-6.273-5.33c-0.367-0.367-0.651-2.562-0.999-2.939       c-0.297-0.321-0.66,1.178-0.953,0.855c-2.479-2.741-4.781-5.636-7.216-8.4c-0.303-0.355-0.304-2.354-0.612-2.7       c-0.338-0.379-0.984,0.896-1.34,0.528c-0.724-0.789-1.469-1.557-2.237-2.303c-1.579-1.513-3.487-3.048-5.659-4.54       c-0.281-0.196-0.647-2.075-0.936-2.271c-0.388-0.264-0.701,1.153-1.104,0.889c-2.566-1.645-5.395-3.29-8.4-4.869       c-0.43-0.229-0.199-3.037-0.64-3.26c-0.279-0.141-1.229,2.299-1.509,2.163c-2.127-1.097-4.321-2.149-6.514-3.136       c-0.319-0.155-1.037-2.592-1.352-2.737c-0.442-0.203-0.481,1.889-0.929,1.684c-2.917-1.294-5.812-2.522-8.597-3.64       c-0.79-0.351-1.579-0.658-2.347-0.965c-8.356-3.312-15.484-5.724-18.532-6.667c0.022-0.022,8.246-6.514,15.462-12.238       c0.68-0.526,1.338-1.053,1.974-1.557c4.825-3.838,8.751-6.952,8.751-6.952c0.219,0.044,0.438,0.066,0.658,0.11       c0.767,0.132,1.513,0.263,2.259,0.439c3.991,0.877,7.61,2.325,10.944,4.189c0.723,0.395,1.425,0.811,2.127,1.272       c3.443,2.171,6.58,4.825,9.474,7.764c0.68,0.68,1.338,1.382,1.974,2.105c2.829,3.07,5.461,6.382,7.983,9.804       c0.353,0.487-0.133,4.19,0.22,4.676c0.283,0.39,1.405-2.435,1.688-2.045c2.369,3.29,4.671,6.623,7.04,9.869       c0.273,0.39,0.041,4.28,0.321,4.663c0.349,0.479,1.212-2.55,1.565-2.075c2.347,3.136,4.737,6.141,7.259,8.882       c0.336,0.358,0.078,3.48,0.42,3.827c0.328,0.333,1.254-2.11,1.577-1.787c2.829,2.807,5.856,5.242,9.189,7.172       c0.362,0.197,0.572,3.452,0.936,3.644c0.365,0.192,0.884-2.679,1.257-2.504c1.799,0.877,3.706,1.601,5.702,2.149       c0.57,0.154,1.14,0.307,1.711,0.439c0.364,0.096,0.876,1.559,1.237,1.64c0.379,0.084,0.608-1.214,0.978-1.136       c2.983,0.636,5.878,1.009,8.663,1.206c0.384,0.033,1.044,1.951,1.425,1.97c0.381,0.019,0.484-1.86,0.856-1.838       c3.246,0.088,6.338-0.044,9.255-0.395c0.35-0.041,1.156,1.206,1.499,1.16c0.387-0.052,0.31-1.397,0.694-1.467       c15.659-2.368,25.463-9.935,25.463-9.935H306.172z"/>
				</g>
				<g>
					<path style="fill:#6CE0C0;" d="M290.498,145.661l3.666,4.449c0,0,12.344,4.908,18.351-0.683       c6.007-5.591-9.615-9.858-9.615-9.858l-11.531,2.164L290.498,145.661z"/>
				</g>
				<g>
					<path style="fill:#FFFFFF;" d="M264.535,133.203L280,150.265c0,0,26.393-10.537,25.327-10.537       C304.261,139.728,274.397,136.402,264.535,133.203z"/>
				</g>
				<g>
					<path style="fill:#FFFFFF;" d="M302.9,139.57l12.135,14.694c0,0,22.656-13.884,27.991-17.206       C343.026,137.058,316.893,140.072,302.9,139.57z"/>
				</g>
				<g>
					<path style="fill:#9BEFE6;" d="M171.994,114.678c-0.79-0.351-1.672-0.543-2.439-0.849l-3.057-19.835       c0.68-0.526,1.39-0.986,2.025-1.49L171.994,114.678z"/>
				</g>
				<g>
					<path style="fill:#9BEFE6;" d="M182.873,119.007c-0.768-0.373-1.513-0.702-2.281-1.053l-2.632-32.254       c0.767,0.132,1.608,0.283,2.354,0.459L182.873,119.007z"/>
				</g>
				<g>
					<path style="fill:#9BEFE6;" d="M193.435,91.665l-1.9,31.575c-0.702-0.373-1.426-0.746-2.149-1.097l1.807-31.798       C191.917,90.74,192.733,91.204,193.435,91.665z"/>
				</g>
				<g>
					<path style="fill:#9BEFE6;" d="M204.888,101.44l-2.914,28.05c-0.658-0.461-1.338-0.921-2.039-1.382l2.962-28.774       C203.577,100.015,204.252,100.717,204.888,101.44z"/>
				</g>
				<g>
					<path style="fill:#9BEFE6;" d="M214.629,114.248l-2.807,24.256c-0.636-0.745-1.272-1.469-1.952-2.171l2.851-24.717       C213.357,112.494,213.993,113.371,214.629,114.248z"/>
				</g>
				<g>
					<path style="fill:#9BEFE6;" d="M223.556,126.705l-2.566,22.283c-0.68-0.68-1.316-1.382-1.952-2.083l2.632-22.787       C222.284,124.995,222.92,125.85,223.556,126.705z"/>
				</g>
				<g>
					<path style="fill:#9BEFE6;" d="M232.811,137.627l-1.755,18.883c-0.724-0.329-1.426-0.724-2.105-1.119l1.864-19.804       C231.473,136.289,232.153,136.969,232.811,137.627z"/>
				</g>
				<g>
					<path style="fill:#9BEFE6;" d="M244.215,160.37c-0.746-0.11-1.47-0.219-2.193-0.329L242,144.799       c0.724,0.395,1.447,0.789,2.193,1.14L244.215,160.37z"/>
				</g>
				<g>
					<path style="fill:#9BEFE6;" d="M254.545,160.853c-0.724,0.022-1.447,0.022-2.171,0.022l-0.768-12.348       c0.746,0.198,1.492,0.351,2.215,0.504L254.545,160.853z"/>
				</g>
				<g>
					<path style="fill:#9BEFE6;" d="M266.542,159.712c-0.724,0.132-1.447,0.219-2.171,0.307l-1.886-9.781       c0.768,0.066,1.535,0.088,2.281,0.132L266.542,159.712z"/>
				</g>
				<g>
					<path style="fill:#9BEFE6;" d="M278.253,157.037c-0.702,0.219-1.403,0.417-2.105,0.592l-2.128-7.654       c0.746-0.088,1.469-0.175,2.193-0.307L278.253,157.037z"/>
				</g>
			</g>
		</g>
	</g>
	<g>
		<path style="fill:#FFFFFF;" d="M393.572,216.954c0,0-0.858,15.197,10.744,18.396c0,0-10.875,2.385-10.744,19.9    c0,0-1.928-17.92-11.007-19.9C382.565,235.35,393.441,231.582,393.572,216.954z"/>
		<path style="fill:#FFFFFF;" d="M407.16,192.839c0,0-0.584,10.346,7.314,12.524c0,0-7.404,1.624-7.314,13.548    c0,0-1.313-12.2-7.494-13.548C399.666,205.363,407.07,202.798,407.16,192.839z"/>
	</g>
	<g>
		<path style="fill:#FFFFFF;" d="M166.445,331.881c0,0,0.858,15.197-10.744,18.396c0,0,10.875,2.385,10.744,19.9    c0,0,1.928-17.92,11.007-19.9C177.452,350.277,166.577,346.509,166.445,331.881z"/>
		<path style="fill:#FFFFFF;" d="M182.783,363.377c0,0,0.584,10.346-7.315,12.524c0,0,7.404,1.624,7.315,13.548    c0,0,1.313-12.2,7.494-13.548C190.276,375.901,182.872,373.336,182.783,363.377z"/>
	</g>
</g>















</svg>
