<?xml version="1.0" encoding="UTF-8"?>
<!-- Generator: Adobe Illustrator 25.2.3, SVG Export Plug-In . SVG Version: 6.00 Build 0)  -->
<svg xmlns="http://www.w3.org/2000/svg" xmlns:xlink="http://www.w3.org/1999/xlink" version="1.1" id="Capa_1" x="0px" y="0px" viewBox="0 0 512 512" style="enable-background:new 0 0 512 512;" xml:space="preserve" width="512" height="512">
<g>
	<path style="fill:#6CE1C1;" d="M458.889,117.931c-23.496-30.219-54.137-54.591-89.392-70.599   c-29.875-13.568-63.056-21.122-98-21.122c-131.049,0-237.281,106.221-237.281,237.269c0,131.038,106.232,237.27,237.281,237.27   c131.037,0,237.269-106.232,237.269-237.27C508.765,208.621,490.15,158.112,458.889,117.931z M453.408,166.011   c-3.484,0-6.312-2.818-6.312-6.301s2.829-6.312,6.312-6.312c3.483,0,6.301,2.829,6.301,6.312S456.892,166.011,453.408,166.011z    M464.68,164.547c-1.487,0-2.696-1.21-2.696-2.696c0-1.486,1.209-2.696,2.696-2.696c1.487,0,2.696,1.209,2.696,2.696   C467.375,163.337,466.166,164.547,464.68,164.547z M476.683,221.002c-2.274,0-4.127-1.852-4.127-4.127   c0-2.285,1.853-4.138,4.127-4.138c2.285,0,4.127,1.853,4.127,4.138C480.809,219.149,478.968,221.002,476.683,221.002z"/>
	
		<ellipse transform="matrix(0.1592 -0.9872 0.9872 0.1592 -16.7422 200.8217)" style="fill:#6CE1C1;" cx="109.526" cy="110.24" rx="58.536" ry="58.535"/>
	<circle style="fill:#6CE1C1;" cx="87.94" cy="344.074" r="58.535"/>
	<path style="fill:#6CE1C1;" d="M157.613,39.239c0,7.398-5.997,13.396-13.396,13.396c-7.398,0-13.396-5.998-13.396-13.396   s5.998-13.396,13.396-13.396C151.615,25.843,157.613,31.841,157.613,39.239z"/>
	<path style="fill:#6CE1C1;" d="M369.342,25.757c0,2.979-2.414,5.393-5.392,5.393c-2.978,0-5.393-2.414-5.393-5.393   c0-2.978,2.414-5.392,5.393-5.392C366.928,20.364,369.342,22.779,369.342,25.757z"/>
	<path style="fill:#6CE1C1;" d="M28.364,376.6c0,2.978-2.414,5.393-5.392,5.393c-2.978,0-5.393-2.414-5.393-5.393   s2.414-5.393,5.393-5.393C25.95,371.207,28.364,373.622,28.364,376.6z"/>
	<path style="fill:#6CE1C1;" d="M403.124,469.387c0,5.853-4.745,10.597-10.597,10.597c-5.853,0-10.597-4.745-10.597-10.597   c0-5.853,4.744-10.597,10.597-10.597C398.38,458.79,403.124,463.534,403.124,469.387z"/>
	<path style="fill:#6CE1C1;" d="M410.772,465.075c0,1.601-1.298,2.899-2.899,2.899c-1.601,0-2.899-1.298-2.899-2.899   c0-1.601,1.298-2.899,2.899-2.899C409.474,462.176,410.772,463.474,410.772,465.075z"/>
	
		<ellipse transform="matrix(0.1598 -0.9871 0.9871 0.1598 -123.8557 812.3305)" style="fill:#6CE1C1;" cx="415.281" cy="478.925" rx="7.408" ry="7.408"/>
	<path style="fill:#6CE1C1;" d="M42.177,344.074c0,7.629-6.184,13.813-13.813,13.813c-7.628,0-13.812-6.184-13.812-13.813   c0-7.628,6.184-13.813,13.812-13.813C35.993,330.262,42.177,336.446,42.177,344.074z"/>
	<path style="fill:#6CE1C1;" d="M397.366,12.288c0,6.787-5.502,12.288-12.288,12.288c-6.786,0-12.288-5.502-12.288-12.288   C372.789,5.502,378.291,0,385.077,0C391.864,0,397.366,5.502,397.366,12.288z"/>
	<path style="fill:#6CE1C1;" d="M486.811,60.553c0,6.787-5.502,12.288-12.288,12.288c-6.787,0-12.288-5.502-12.288-12.288   s5.502-12.288,12.288-12.288C481.309,48.265,486.811,53.766,486.811,60.553z"/>
	<path style="fill:#6CE1C1;" d="M415.557,23.902c-18.926,0-35.699,9.219-46.061,23.43c-6.878,9.418-10.938,21.011-10.938,33.569   c0,31.484,25.515,56.999,56.999,56.999c17.339,0,32.87-7.743,43.332-19.968c8.52-9.962,13.667-22.886,13.667-37.03   C472.556,49.417,447.041,23.902,415.557,23.902z"/>
	<path style="fill:#6CE1C1;" d="M72.303,373.852c-38.151,0-69.069,30.929-69.069,69.069c0,38.151,30.918,69.08,69.069,69.08   c38.151,0,69.069-30.929,69.069-69.08C141.372,404.78,110.454,373.852,72.303,373.852z M25.466,435.376   c-4.36,0-7.887-3.528-7.887-7.876s3.528-7.887,7.887-7.887c4.349,0,7.877,3.539,7.877,7.887S29.815,435.376,25.466,435.376z    M29.405,409.906c-2.174,0-3.938-1.764-3.938-3.939c0-2.174,1.764-3.938,3.938-3.938c2.174,0,3.938,1.764,3.938,3.938   C33.343,408.142,31.579,409.906,29.405,409.906z"/>
	<g>
		<path style="fill:#FF5555;" d="M363.118,424.398c-27.525,16.103-59.568,25.352-93.763,25.352c-0.233,0-0.467-0.01-0.691-0.01    l-6.807-39.835l6.807-40.242h0.691c19.605,0,37.972-5.331,53.719-14.621l22.394,22.345L363.118,424.398z"/>
		<path style="fill:#FF5555;" d="M214.599,354.434l-7.757,37.14l-32.286,32.215c-28.256-16.783-51.689-40.825-67.721-69.569    l32.309-30.211l37.046-9.833C185.186,330.767,198.487,344.687,214.599,354.434z"/>
		<path style="fill:#FFFFFF;" d="M268.664,369.664v80.077c-34.368-0.132-66.533-9.584-94.108-25.951l28.702-49.709l11.341-19.646    C230.387,363.988,248.876,369.531,268.664,369.664z"/>
		<path style="fill:#FFFFFF;" d="M431.539,354.83c-16.225,28.825-39.902,52.887-68.421,69.568l-27.738-48.044l-12.306-21.311    c16.377-9.655,29.921-23.585,39.11-40.257l35.578,9.224L431.539,354.83z"/>
		<path style="fill:#FF5555;" d="M455.327,263.768c0,33.078-8.64,64.136-23.788,91.062l-45.871-26.489l-23.484-13.554    c8.335-15.138,13.077-32.52,13.077-51.019c0-0.995-0.01-1.99-0.041-2.985l37.189-8.628l42.888,8.628    C455.307,261.777,455.327,262.773,455.327,263.768z"/>
		<path style="fill:#FFFFFF;" d="M360.539,101.644l-15.071,40.554l-24.973,28.801c-15.158-8.376-32.591-13.148-51.141-13.148    c-0.233,0-0.467,0-0.691,0.01l-5.316-44.443l5.316-35.624c0.224,0,0.457-0.01,0.691-0.01    C302.484,77.785,333.593,86.455,360.539,101.644z"/>
		<path style="fill:#FFFFFF;" d="M176.191,314.177l-20.58,11.879l-48.775,28.164c-14.935-26.784-23.454-57.618-23.454-90.453    c0-0.995,0.02-1.99,0.041-2.985l28.324-8.628l51.743,8.628c-0.031,0.995-0.041,1.99-0.041,2.985    C163.449,282.013,168.068,299.181,176.191,314.177z"/>
		<path style="fill:#FF5555;" d="M428.95,168.248l-30.543,30.929l-38.721,9.054l-0.101,0.061    c-9.575-15.554-23.058-28.439-39.089-37.292l16.529-28.632l23.515-40.724c28.124,15.859,51.709,38.805,68.309,66.441    C428.889,168.136,428.919,168.197,428.95,168.248z"/>
		<path style="fill:#FFFFFF;" d="M455.297,260.569H375.22c-0.528-19.148-6.142-37.028-15.534-52.339    c-0.03-0.051-0.071-0.112-0.101-0.163l27.647-15.961l41.617-24.022l0.102-0.061C445.215,195.153,454.759,226.76,455.297,260.569z"/>
		<path style="fill:#FF5555;" d="M268.664,77.795v80.066c-18.722,0.112-36.287,5.087-51.506,13.727l-24.7-27.138l-15.344-42.217    C204.111,86.79,235.352,77.917,268.664,77.795z"/>
		<path style="fill:#FF5555;" d="M178.759,208.88c-9.239,15.219-14.742,32.936-15.27,51.903H83.423    c0.518-33.556,9.929-64.949,25.981-91.936l40.681,11.393L178.759,208.88z"/>
		<path style="fill:#FFFFFF;" d="M217.158,171.588c-15.768,8.945-29.007,21.819-38.399,37.292l-24.763-14.295l-44.592-25.738    c16.428-27.627,39.8-50.633,67.71-66.614l24.52,42.47L217.158,171.588z"/>
	</g>
	<path style="opacity:0.2;fill:#AE312F;" d="M163.489,260.783c-0.031,0.995-0.041,1.99-0.041,2.985   c0,18.245,4.62,35.414,12.742,50.409c8.996,16.59,22.296,30.51,38.409,40.257c15.788,9.554,34.277,15.097,54.065,15.229h0.691   c19.605,0,37.972-5.331,53.719-14.621c16.377-9.655,29.921-23.585,39.11-40.257c8.335-15.138,13.077-32.52,13.077-51.019   c0-0.995-0.01-1.99-0.041-2.985h29.84c-0.345,24.722-7.381,47.81-19.392,67.558c-12.234,20.093-29.606,36.714-50.288,48.014   c-19.027,10.406-40.856,16.316-64.066,16.316c-0.883,0-1.767-0.01-2.65-0.031c-23.859-0.457-46.186-7.168-65.406-18.559   c-19.697-11.656-36.145-28.225-47.648-48.024c-11.189-19.23-17.717-41.506-18.052-65.274c-0.01-0.62-0.01-1.249-0.01-1.879   c0-23.311,5.97-45.232,16.448-64.319c11.26-20.499,27.738-37.719,47.638-49.882c19.595-11.98,42.5-19.057,67.03-19.534   c0.883-0.02,1.767-0.03,2.65-0.03c23.88,0,46.308,6.265,65.71,17.23c20.854,11.788,38.226,29.007,50.207,49.74   c0.03,0.061,0.061,0.112,0.091,0.173c11.29,19.616,17.747,42.368,17.747,66.624c0,0.558,0,1.117-0.01,1.665h-29.84   c-0.528-19.148-6.142-37.028-15.534-52.339l-0.101,0.061c-9.575-15.554-23.058-28.439-39.089-37.292   c-15.158-8.376-32.591-13.148-51.141-13.148c-0.233,0-0.467,0-0.691,0.01c-18.722,0.112-36.287,5.087-51.506,13.727   c-15.768,8.945-29.007,21.819-38.399,37.292C169.52,224.1,164.017,241.817,163.489,260.783z"/>
	<g>
		<g>
			<path style="fill:#FF9D3D;" d="M356.381,239.892c0,0,19.56-5.304,22.212-2.984c2.652,2.321,0,2.984,0,2.984     s7.293-0.995,8.951,1.326c1.658,2.321,0,3.315,0,3.315s44.756,17.571,24.864,72.604c0,0,17.902,10.94,25.196,22.212     c7.293,11.272,7.957,34.81,0,37.13c-5.64,1.645-11.935-13.924-14.587-23.206c-2.652-9.283-11.935-14.587-30.169-16.245     c-18.234-1.658-26.522-8.09-28.511-30.567C362.349,283.984,356.381,239.892,356.381,239.892z"/>
			<path style="opacity:0.2;fill:#AE312F;" d="M356.381,239.892c0,0,19.56-5.304,22.212-2.984c2.652,2.321,0,2.984,0,2.984     s7.293-0.995,8.951,1.326c1.658,2.321,0,3.315,0,3.315s44.756,17.571,24.864,72.604c0,0,17.902,10.94,25.196,22.212     c7.293,11.272,7.957,34.81,0,37.13c-5.64,1.645-11.935-13.924-14.587-23.206c-2.652-9.283-11.935-14.587-30.169-16.245     c-18.234-1.658-26.522-8.09-28.511-30.567C362.349,283.984,356.381,239.892,356.381,239.892z"/>
		</g>
		<path style="opacity:0.48;fill:#AE312F;" d="M383.159,319.285c3.102,0.376,6.252,0.275,9.236-0.393l0.787-0.176l-0.35,0.759    c-0.421,0.913-0.816,2.004-0.725,2.868c0.054,0.425,0.269,0.571,0.564,0.6c0.232,0.014,0.655-0.278,0.994-0.609    c0.702-0.693,1.302-1.587,1.853-2.488c0.546-0.907,1.059-1.861,1.523-2.804l1.474-2.994l-0.242,3.345    c-0.064,0.889-0.004,1.882,0.263,2.7c0.271,0.838,0.779,1.417,1.5,1.503c0.345,0.044,0.503-0.025,0.704-0.273    c0.192-0.258,0.332-0.675,0.404-1.113c0.145-0.881,0.132-1.878,0.04-2.801l-0.343-3.419l1.516,3.079    c0.398,0.81,1.195,1.555,2.094,1.72c0.451,0.098,0.945,0.076,1.424-0.025c0.433-0.1,0.853-0.362,1.228-0.703    c0.751-0.695,1.328-1.646,1.81-2.624c0.474-0.987,0.874-2.032,1.203-3.079l0.651-2.07l-0.12,2.144    c-0.048,0.862,0.005,1.774,0.242,2.622c0.229,0.841,0.682,1.681,1.518,2.085c-0.878-0.294-1.497-1.126-1.799-1.992    c-0.328-0.875-0.468-1.792-0.5-2.736l0.531,0.074c-0.232,1.128-0.575,2.212-1.022,3.275c-0.455,1.055-0.995,2.102-1.848,2.992    c-0.43,0.436-0.963,0.833-1.62,1.029c-0.61,0.165-1.258,0.242-1.913,0.128c-1.335-0.245-2.386-1.152-3.003-2.328l1.173-0.34    c0.138,1.063,0.19,2.09,0.018,3.189c-0.094,0.543-0.235,1.119-0.63,1.679c-0.368,0.591-1.28,0.951-1.928,0.807    c-0.64-0.072-1.266-0.389-1.715-0.852c-0.443-0.467-0.708-1.021-0.881-1.559c-0.332-1.098-0.377-2.145-0.291-3.247l1.232,0.351    c-0.499,1.007-1.04,1.959-1.646,2.898c-0.611,0.932-1.249,1.852-2.119,2.668c-0.45,0.374-0.95,0.849-1.837,0.839    c-0.439-0.048-0.764-0.211-1.069-0.525c-0.275-0.318-0.388-0.709-0.41-1.039c-0.031-1.33,0.479-2.328,0.992-3.35l0.437,0.582    c-1.573,0.283-3.167,0.369-4.742,0.275C386.244,319.872,384.678,319.675,383.159,319.285z"/>
		<path style="fill:#AE312F;" d="M431.891,373.232c1.289-1.378,1.99-2.901,2.406-4.546c0.24-0.815,0.314-1.678,0.442-2.551    c0.038-0.439,0.072-0.885,0.126-1.339c0.029-0.454,0.053-0.912,0.135-1.391c0.211,0.427,0.364,0.874,0.521,1.326    c0.102,0.459,0.214,0.926,0.266,1.401c0.085,0.951,0.061,1.932-0.19,2.886c-0.257,0.944-0.67,1.87-1.311,2.627    C433.66,372.396,432.837,373.024,431.891,373.232z"/>
	</g>
	<g>
		<g>
			<path style="fill:#FF9D3D;" d="M195.426,351.07c-2.522,2.645-5.835,5.377-10.087,8.183c-2.93,1.941-5.81,3.486-8.616,4.685     c-26.466,11.385-47.876-7.355-67.197-17.714c-5.933-3.189-11.657-5.575-17.281-6.07c-0.841-0.087-1.669-0.111-2.509-0.099     c-10.656,0.173-18.233,12.288-24.773,22.288c-5.488,8.381-10.235,15.267-15.452,12.411c-4.475-2.448-5.105-11.879-2.102-22.56     c1.595-5.686,4.24-11.719,7.887-17.244c3.77-5.699,8.616-10.866,14.513-14.512c5.118-3.177,11.026-5.217,17.714-5.489     c25.106-1.026,40.954,13.177,54.403,22.003c5.723,3.77,11.027,6.564,16.416,6.787c0.198,0.012,0.396,0.012,0.581,0.012     c17.566,0.049,22.634-31.015,22.634-31.015S216.762,328.684,195.426,351.07z"/>
			<path style="opacity:0.2;fill:#AE312F;" d="M195.426,351.07c-2.522,2.645-5.835,5.377-10.087,8.183     c-2.93,1.941-5.81,3.486-8.616,4.685c-26.466,11.385-47.876-7.355-67.197-17.714c-5.933-3.189-11.657-5.575-17.281-6.07     c-0.841-0.087-1.669-0.111-2.509-0.099c-10.656,0.173-18.233,12.288-24.773,22.288c-5.488,8.381-10.235,15.267-15.452,12.411     c-4.475-2.448-5.105-11.879-2.102-22.56c1.595-5.686,4.24-11.719,7.887-17.244c3.77-5.699,8.616-10.866,14.513-14.512     c5.118-3.177,11.026-5.217,17.714-5.489c25.106-1.026,40.954,13.177,54.403,22.003c5.723,3.77,11.027,6.564,16.416,6.787     c0.198,0.012,0.396,0.012,0.581,0.012c17.566,0.049,22.634-31.015,22.634-31.015S216.762,328.684,195.426,351.07z"/>
		</g>
		<path style="fill:#AE312F;" d="M64.963,362.344c-5.488,8.381-10.235,15.267-15.452,12.411c-4.475-2.448-5.105-11.879-2.102-22.56    c4.079,1.693,9.654,5.835,9.654,15.848C57.064,368.043,60.327,363.197,64.963,362.344z"/>
		<path style="fill:#AE312F;" d="M68.795,339.327c-5.291,1.916-10.581-1.743-13.499-4.376c3.77-5.699,8.616-10.866,14.513-14.512    C71.638,325.692,74.827,337.127,68.795,339.327z"/>
		<path style="fill:#AE312F;" d="M109.526,346.225c-5.933-3.189-11.657-5.575-17.281-6.07c0.606-5.637,2.522-12.633,8.381-11.335    C107.165,330.278,109.019,340.143,109.526,346.225z"/>
		<path style="fill:#AE312F;" d="M158.923,343.752c-2.213,4.216-6.44,10.161-12.176,8.74c-7.021-1.743-5.624-11.744-4.821-15.539    c5.723,3.77,11.027,6.564,16.416,6.787C158.54,343.752,158.737,343.752,158.923,343.752z"/>
		<path style="fill:#AE312F;" d="M195.426,351.07c-2.522,2.645-5.835,5.377-10.087,8.183c-2.93,1.941-5.81,3.486-8.616,4.685    c0.062-3.733,0.977-8.406,4.561-11.237C185.154,349.649,191.1,350.119,195.426,351.07z"/>
	</g>
	<path style="fill:#FF9D3D;" d="M153.452,203.474c41.477,37.474,125.224-27.039,135.087-37.011   c1.942-13.336,5.916-24.73-1.017-42.661c-6.055-14.406-17.232-27.577-32.148-33.191c-26.151-9.655-56.929,6.772-79.689,20.397   l-0.008,0.009c-24.404,15.373-46.515,36.473-39.246,62.407C139.266,184.861,144.53,195.77,153.452,203.474z"/>
	<path style="fill:#FF9D3D;" d="M378.881,306.284c-7.498,56.665-79.293,62.846-79.293,62.846l0.202,1.115l0.255,1.398   c4.085,5.294,15.708,10.655,22.668,11.771c6.947,1.102,39.922,1.276,37.141,12.805c-2.781,11.556-34.319,3.561-54.246,1.398   c-19.927-2.19-23.126-9.97-23.126-9.97c-13.84,15.869-34.762,18.852-59.675,3.077c-4.824-3.05-9.796-6.813-14.902-11.341   c-0.779-0.672-1.545-1.371-2.324-2.083c-9.97-9.191-17.213-20.492-22.454-31.753c-2.163-4.609-3.977-9.204-5.509-13.639   c-1.639-4.77-2.956-9.352-4.018-13.572c-1.519-6.087-2.486-11.422-3.091-15.439c-0.739-4.905-0.941-7.847-0.941-7.847   c-12.685,5.308-27.829-13.249-35.488-21.997c-0.632-0.726-1.303-1.559-1.975-2.486c-2.325-3.198-4.784-7.484-6.705-12.282   c-3.776-9.433-5.482-20.814-0.108-29.616c0.551-0.9,1.169-1.787,1.881-2.634c1.814-2.176,3.951-4.165,6.289-5.993   c13.222-10.36,32.612-15.278,32.612-15.278s44.451-59.702,119.793-42.811c43.241,9.675,69.632,39.505,83.042,72.507   C378.868,258.972,381.663,285.228,378.881,306.284z"/>
	<path style="fill:#FF9D3D;" d="M399.225,200.695c0,0-3.117,3.964-8.049,4.071c-4.918,0.121-8.895-4.999-8.895-4.999   s-6.007,1.733-10.75-1.424c-3.709-2.473-10.132-15.386-24.268-26.297c-16.084-3.427-27.425,5.415-35.891,9.312   c-35.958,16.514-29.226-30.086-29.226-30.086l7.915-4.448c0,0,10.75-6.208,26.418-10.441c4.112-1.128,8.546-2.109,13.236-2.795   c4.757-0.712,9.755-1.129,14.888-1.115c4.797,0.027,9.715,0.443,14.66,1.37c0.712,0.134,1.424,0.269,2.137,0.43   c6.651,1.451,12.335,3.507,17.186,5.993c4.999,2.54,9.11,5.509,12.523,8.721c11.18,10.521,14.727,23.448,16.555,31.255   C411.211,195.293,406.186,199.015,399.225,200.695z"/>
	<path style="fill:#FF9D3D;" d="M208.763,95.065c0.424,0.056,7.293,0.949,13.969,0.733c2.28-0.086,4.536-0.291,6.507-0.714   c3.197-0.677,5.645-1.907,6.191-4.037c0.234-0.926,0.303-2.029,0.227-3.265c-0.002-0.129-0.009-0.268-0.022-0.392   c-0.483-6.202-4.341-15.121-8.199-19.213c-1.073-1.143-2.14-1.9-3.13-2.133c-0.389-0.096-0.753-0.099-1.122-0.023   c-5.833,1.274-9.064,6.234-10.211,11.63c-0.792,3.707-0.678,7.787-1.839,11.416c-0.093,0.272-0.833,2.651-1.487,4.335l-0.16,0.39   C209.196,94.522,208.92,95.038,208.763,95.065z"/>
	<path style="fill:#FF9D3D;" d="M140.583,154.646c0.421-0.394,27.806-26.464,21.728-36.063c-0.583-0.917-1.249-1.787-1.976-2.595   c-6.906-7.759-19.551-10.657-23.019-8.33l-0.01,0.006c-3.822,2.572-0.211,12.05,1.335,20.14   C140.174,135.778,140.56,154.081,140.583,154.646z"/>
	<path style="fill:#AE312F;" d="M155.377,121.611c2.608-3.388,4.847-5.504,4.958-5.623c-6.906-7.759-19.551-10.657-23.019-8.33   l-0.01,0.006c0.673,2.34,1.495,5.131,6.067,9.509c0.453,0.428,0.859,0.869,1.238,1.312   C150.263,125.024,152.899,124.842,155.377,121.611z"/>
	<path style="fill:#AE312F;" d="M231.279,88.112c1.625-0.291,3.162-0.545,4.356-0.721c-0.483-6.202-4.341-15.121-8.199-19.213   c-1.073-1.143-2.14-1.9-3.13-2.133c0,0-1.54,1.795-0.912,7.134c0.232,1.947,0.497,3.79,0.613,5.553   C224.275,82.902,225.972,89.036,231.279,88.112z"/>
	<path style="opacity:0.48;fill:#EB4949;" d="M189.051,143.62c4.674,0.016,8.229,4.182,6.133,8.934   c-2.806,6.363-12.397,12.098-19.365,11.208c-5.882-0.752-7.675-8.21-4.408-11.99c2.761-3.196,6.546-5.334,10.475-6.666   C183.713,144.486,186.432,143.611,189.051,143.62z"/>
	<path style="opacity:0.48;fill:#EB4949;" d="M230.541,119.965c-1.806,4.591,0.894,9.701,6.373,9.498   c7.335-0.272,16.699-7.445,18.541-14.627c1.555-6.063-5.061-10.728-10.043-8.998c-4.211,1.462-7.783,4.342-10.622,7.677   C233.47,115.066,231.553,117.392,230.541,119.965z"/>
	<path style="fill:#AE312F;" d="M200.171,124.118c3.087-0.348,5.285-2.942,6.162-5.775c1.113-3.531,0.255-7.181-1.15-10.507   c-1.487-3.495-3.741-6.661-6.48-9.349c-6.329,3.044-12.2,6.13-17.569,9.261c2.417,2.174,4.623,4.458,6.581,6.425   c2.182,2.198,4.25,4.508,6.233,6.877C195.436,122.821,197.719,124.399,200.171,124.118z"/>
	<path style="fill:#AE312F;" d="M170.421,114.413c2.711,1.971,5.293,3.714,6.988,3.64c5.094-0.197,5.97-5.22,1.96-9.271   c-1.257,0.738-2.488,1.483-3.684,2.226l-0.008,0.009C173.858,112.15,172.109,113.279,170.421,114.413z"/>
	<path style="fill:#AE312F;" d="M210.202,102.011c4.336,0.272,6.614-3.65,4.311-5.411c-1.594-1.22-3.258-2.172-4.802-2.887   c-0.069,0.022-0.146,0.053-0.222,0.084c-2.078,0.791-4.194,1.663-6.373,2.645c-0.23,0.094-0.452,0.196-0.681,0.307   C205.195,99.207,208.083,101.877,210.202,102.011z"/>
	<path style="fill:#AE312F;" d="M135.248,167.3c19.35,0.565,19.433-12.692,11.465-11.548c-3.741,0.53-7.569,0.392-10.865,0.079   c-0.159,0.667-0.282,1.332-0.388,1.996C134.956,161.003,134.87,164.153,135.248,167.3z"/>
	<path style="fill:#AE312F;" d="M140.324,185.025c7.58-0.48,15.813-2.675,20.804-7.999c2-2.126,3.066-5.436,1.144-7.519   c-0.772-0.826-1.933-1.32-3.173-1.521c-3.647-0.588-7.72,0.77-11.311,1.859c-3.514,1.059-7.949,1.424-11.854,1.448   c0.077,0.381,0.162,0.752,0.248,1.123c0.083,0.336,0.166,0.673,0.249,1.009C137.44,177.52,138.742,181.413,140.324,185.025z"/>
	<path style="fill:#AE312F;" d="M153.452,203.474l0.102,0.09c3.823-1.56,7.214-4.258,9.623-7.523   c1.337-1.821,2.198-4.223,0.805-6.271c-1.857-2.718-5.957-1.368-8.35-0.311c-4.452,1.995-8.335,2.911-11.26,3.319   C146.91,196.836,149.927,200.426,153.452,203.474z"/>
	<g>
		<path style="fill:#AE312F;" d="M264.095,110.857c-3.1,1.317-6.3,2.235-9.522,3.06c-3.233,0.784-6.49,1.471-9.846,1.757    c3.099-1.32,6.299-2.238,9.522-3.06C257.482,111.833,260.739,111.146,264.095,110.857z"/>
		<path style="fill:#AE312F;" d="M261.858,102.866c-2.593,1.968-5.378,3.572-8.208,5.092c-2.85,1.482-5.746,2.876-8.835,3.904    c2.592-1.97,5.377-3.575,8.208-5.092C255.874,105.291,258.77,103.897,261.858,102.866z"/>
		<path style="fill:#AE312F;" d="M255.121,95.071c-1.464,2.908-3.259,5.574-5.133,8.183c-1.908,2.584-3.896,5.11-6.218,7.391    c1.461-2.909,3.257-5.575,5.133-8.182C250.813,99.88,252.801,97.354,255.121,95.071z"/>
	</g>
	<path style="fill:#FFFFFF;" d="M151.547,120.676c0,0,1.93-1.29,2.199-2.065c0.28-0.781-2.854,0.927-2.854,0.927   c1.16-1.55,1.38-4.086,0.835-3.814c-0.562,0.268-1.587,2.649-1.587,2.649c0.294-3.819-3.423-7.189-5.347-5.723   c-0.824,0.626-0.649,3.156-0.181,5.834c5.652,6.539,4.35,14.493,3.936,15.64c1.568-4.884,4.352-9.283,6.83-12.514   C154.002,120.419,151.547,120.676,151.547,120.676z"/>
	<path style="fill:#FFFFFF;" d="M231.279,88.112c-1.049-1.644-3.937-3.322-4.19-3.463c0.166-0.005,1.958,0.01,2.497-0.682   c0.563-0.727-2.389-0.67-2.389-0.67s2.014-0.661,1.924-1.309c-0.074-0.642-1.992,0.341-1.992,0.341   c1.044-1.432,1.989-6.291-0.17-6.566c-1.406-0.175-2.413,1.656-2.952,2.967c0.268,4.17-0.337,7.891-4.457,11.592   C219.55,90.323,225.972,89.036,231.279,88.112z"/>
	<g>
		<path style="fill:#AE312F;" d="M210.029,129.451c0,0,1.026-4.852,2.775-4.952c1.749-0.099,0.223,7.234-1.129,8.536    s-7.693-2.426-7.373-3.929C204.623,127.604,210.029,129.451,210.029,129.451z"/>
		<path style="fill:#AE312F;" d="M216.413,154.719c-0.548-1.823-1.016-3.662-1.537-5.489l-1.437-5.506l-1.432-5.5    c-0.476-1.824-0.947-3.675-1.527-5.419l-1.039-3.128l2.17,2.458c2.451,2.777,4.82,5.606,7.028,8.574    c2.208,2.959,4.344,6.002,6.028,9.296c-1.079-1.5-2.176-2.972-3.339-4.396c-1.129-1.448-2.302-2.863-3.489-4.264    c-2.383-2.792-4.773-5.589-7.223-8.312l1.131-0.67c0.605,1.862,1.047,3.699,1.5,5.552c0.418,1.856,0.852,3.706,1.206,5.574    l1.072,5.596C215.825,150.964,216.166,152.832,216.413,154.719z"/>
		<path style="opacity:0.48;fill:#AE312F;" d="M219.028,129.909c2.988-0.749,6.398-0.409,9.249,1.382    c4.133,2.596,6.958,7.064,5.853,11.911c-0.686,3.008-2.582,5.426-4.721,7.399c-4.099,3.782-8.438,7.248-14.034,8.398    c-2.03,0.417-4.175,0.548-6.279,0.005c-3.225-0.831-6.203-3.306-7.807-6.487c-1.604-3.182-1.796-6.995-0.504-9.997    c1.59-3.693,5.339-6.53,8.731-8.22C212.539,132.796,215.742,130.733,219.028,129.909z"/>
	</g>
	<path style="fill:#AE312F;" d="M182.357,157.318c-2.408,2.355-5.053,4.375-7.755,6.316c-2.726,1.907-5.509,3.733-8.531,5.221   c2.406-2.357,5.052-4.378,7.755-6.316C176.554,160.634,179.337,158.808,182.357,157.318z"/>
	<path style="fill:#AE312F;" d="M161.475,161.947c2.795-1.668,5.741-2.954,8.722-4.149c2.997-1.156,6.03-2.221,9.214-2.899   c-2.795,1.671-5.74,2.956-8.723,4.149C167.691,160.201,164.658,161.265,161.475,161.947z"/>
	<path style="fill:#AE312F;" d="M159.961,151.756c3.244-0.269,6.455-0.128,9.659,0.109c3.2,0.279,6.392,0.657,9.55,1.448   c-3.244,0.272-6.456,0.131-9.659-0.109C166.312,152.921,163.12,152.543,159.961,151.756z"/>
	<path style="opacity:0.48;fill:#AE312F;" d="M286.144,163.854c-0.465,1.691-1.058,3.341-1.696,4.98   c-0.34,0.811-0.702,1.615-1.103,2.41c-0.415,0.793-0.829,1.577-1.512,2.319l0.162-0.507c0.176,0.81,0.255,1.597,0.246,2.439   c-0.017,0.422-0.048,0.851-0.185,1.31c-0.135,0.436-0.424,1.016-1.047,1.278c-0.295,0.131-0.677,0.167-1.031,0.045   c-0.338-0.126-0.569-0.341-0.743-0.546c-0.325-0.415-0.487-0.824-0.635-1.227c-0.273-0.811-0.43-1.586-0.516-2.416l1.293,0.162   c-0.315,0.824-0.664,1.595-1.074,2.366c-0.41,0.766-0.865,1.522-1.544,2.195c-0.334,0.328-0.743,0.675-1.355,0.807   c-0.308,0.068-0.573,0.072-0.912-0.031c-0.327-0.083-0.637-0.35-0.797-0.628c-0.306-0.573-0.278-1.083-0.25-1.545   c0.047-0.468,0.138-0.89,0.276-1.338l0.75,0.501c-1.167,0.836-2.348,1.605-3.607,2.263c-1.262,0.639-2.563,1.235-3.94,1.548   c1.288-0.565,2.493-1.261,3.639-2.051c1.139-0.79,2.277-1.604,3.316-2.497l1.088-0.935l-0.339,1.436   c-0.165,0.701-0.222,1.652,0.034,2.019c0.059,0.072,0.085,0.102,0.169,0.114c0.054,0.022,0.233,0.025,0.322-0.017   c0.211-0.045,0.489-0.249,0.727-0.516c0.489-0.528,0.902-1.226,1.272-1.933c0.367-0.71,0.697-1.47,0.969-2.211l0.94-2.566   l0.353,2.728c0.091,0.704,0.215,1.459,0.436,2.114c0.11,0.322,0.248,0.638,0.401,0.835c0.192,0.201,0.153,0.15,0.261,0.133   c0.241-0.025,0.506-0.759,0.522-1.448c0.045-0.703-0.023-1.464-0.118-2.175l-0.043-0.318l0.205-0.189   c0.547-0.504,1.041-1.235,1.483-1.957c0.444-0.733,0.859-1.493,1.255-2.264C284.637,167.009,285.381,165.431,286.144,163.854z"/>
	<path style="opacity:0.48;fill:#AE312F;" d="M197.166,216.002c-1.548-0.053-3.086-0.215-4.628-0.375   c-1.539-0.184-3.069-0.437-4.602-0.78l0.522-0.757c0.307,0.412,0.561,0.815,0.777,1.293c0.174,0.465,0.475,1.036,0.09,1.836   c-0.242,0.385-0.575,0.573-0.964,0.651c-0.449,0.07-0.778-0.071-1.038-0.194c-0.518-0.269-0.893-0.603-1.254-0.942   c-0.711-0.684-1.292-1.439-1.85-2.206c-0.551-0.785-1.07-1.535-1.522-2.461l1.275-0.201c-0.113,0.79-0.275,1.521-0.558,2.282   c-0.148,0.377-0.32,0.758-0.606,1.133c-0.146,0.186-0.325,0.374-0.573,0.527c-0.257,0.158-0.563,0.235-0.84,0.236   c-0.582,0.002-1.045-0.255-1.389-0.517c-0.351-0.27-0.626-0.574-0.873-0.886c-0.494-0.629-0.864-1.283-1.183-2.002l0.562,0.291   c-1.753,0.198-3.458,0.169-5.168-0.032c-1.695-0.245-3.375-0.667-4.905-1.402c0.821,0.214,1.636,0.415,2.466,0.531   c0.828,0.122,1.66,0.195,2.493,0.207c1.653,0.071,3.347-0.031,4.932-0.331l0.362-0.069l0.201,0.36   c0.329,0.589,0.724,1.193,1.15,1.7c0.412,0.503,0.988,0.926,1.315,0.881c0.241,0.05,0.612-0.462,0.829-1.089   c0.222-0.612,0.37-1.319,0.453-1.977l0.283-2.234l0.992,2.033c0.359,0.736,0.868,1.531,1.374,2.259   c0.512,0.737,1.075,1.443,1.668,2.07c0.296,0.306,0.619,0.595,0.919,0.762c0.146,0.086,0.28,0.108,0.291,0.102   c0.063-0.003,0.166-0.062,0.165-0.078c0.068-0.044,0.054-0.471-0.095-0.838c-0.135-0.377-0.347-0.779-0.568-1.124l-0.732-1.145   l1.253,0.388c1.448,0.449,2.951,0.779,4.45,1.119C194.14,215.382,195.654,215.671,197.166,216.002z"/>
	<path style="fill:#AE312F;" d="M189.068,139.269c0,0-12.665-11.876-26.612,0.978l4.947,2.531   C167.402,142.778,177.971,134.987,189.068,139.269z"/>
	<path style="fill:#AE312F;" d="M223.3,121.721c0,0-4.447-16.783,13.485-22.963l-0.119,5.555   C236.666,104.313,224.794,109.921,223.3,121.721z"/>
	<path style="fill:#AE312F;" d="M267.27,110.743c1.941,1.031,4.321,0.589,6.413-0.107c1.69-0.556,3.344-1.258,4.919-2.095   c-0.965-1.243-1.954-2.458-3.011-3.633c-0.369-0.423-0.746-0.837-1.141-1.249c-0.847-0.909-1.718-1.79-2.622-2.634   c-0.075-0.083-0.16-0.174-0.243-0.247c-1.36-1.261-2.787-2.466-4.288-3.604c-0.196,0.354-0.391,0.726-0.595,1.09   c-1.121,2.043-2.172,4.213-2.303,6.534C264.251,107.119,265.22,109.649,267.27,110.743z"/>
	<path style="fill:#AE312F;" d="M257.903,97.508c2.04,0.937,3.944-0.78,5.445-3.031c-2.463-1.523-5.122-2.823-7.975-3.865   C255.255,93.536,255.728,96.519,257.903,97.508z"/>
	<path style="fill:#AE312F;" d="M285.869,120.029c-0.475-0.977-0.984-1.951-1.529-2.923c-0.04-0.067-0.06-0.119-0.1-0.186   c-0.685-1.243-1.439-2.482-2.272-3.725c-0.175-0.269-0.35-0.538-0.542-0.806c-0.165-0.243-0.34-0.512-0.523-0.772   c-0.078-0.118-0.173-0.234-0.259-0.342c-1.847,1.372-3.846,3.515-4.102,6.483C276.272,121.024,281.452,120.804,285.869,120.029z"/>
	<path style="opacity:0.48;fill:#AE312F;" d="M345.468,170.575c1.577,1.33,3.318,2.467,4.911,3.791   c1.616,1.295,3.185,2.653,4.689,4.083c3.026,2.831,5.749,6.05,7.98,9.545c2.322,3.383,4.764,6.773,7.929,9.284   c1.58,1.238,3.382,2.168,5.306,2.522c1.925,0.368,3.929,0.076,5.8-0.59l0.386-0.137l0.277,0.329c1.009,1.196,2.24,2.308,3.564,3.17   c1.327,0.862,2.813,1.49,4.326,1.558c0.767,0.033,1.47-0.067,2.247-0.317c0.762-0.216,1.5-0.5,2.182-0.873   c1.344-0.701,2.598-1.865,3.086-3.109l0.256-0.654l0.642,0.244c1.261,0.48,2.85,0.437,4.09-0.194   c1.276-0.621,2.258-1.804,2.963-3.134c0.699-1.34,1.195-2.834,1.511-4.344c0.303-1.483,0.341-3.054,0.279-4.614   c-0.368-6.279-2.243-12.454-4.612-18.318c-2.421-5.861-5.547-11.472-9.544-16.418c-3.954-4.954-8.863-9.262-14.705-11.913   c5.976,2.362,11.062,6.613,15.229,11.481c4.147,4.926,7.426,10.541,10,16.436c1.288,2.951,2.368,5.996,3.204,9.113   c0.842,3.114,1.468,6.299,1.664,9.557c0.075,1.629,0.053,3.28-0.272,4.935c-0.331,1.617-0.835,3.192-1.604,4.694   c-0.773,1.478-1.902,2.912-3.519,3.719c-1.622,0.813-3.5,0.873-5.22,0.207l0.898-0.409c-0.756,1.868-2.193,3.009-3.743,3.857   c-0.778,0.418-1.602,0.728-2.437,0.958c-0.804,0.258-1.768,0.403-2.66,0.348c-1.823-0.099-3.492-0.843-4.931-1.788   c-1.448-0.965-2.705-2.108-3.827-3.455l0.663,0.191c-2.015,0.704-4.25,1.024-6.404,0.596c-2.159-0.399-4.105-1.495-5.747-2.83   c-3.286-2.724-5.665-6.21-7.941-9.663c-2.167-3.513-4.736-6.721-7.642-9.654c-1.446-1.468-2.962-2.871-4.529-4.215   C348.664,173.201,346.994,171.973,345.468,170.575z"/>
	<path style="fill:#AE312F;" d="M381.93,199.996c0.754-1.126,1.334-2.29,1.752-3.493c0.402-1.204,0.675-2.435,0.708-3.688   c0.03-1.248-0.068-2.51-0.354-3.764c-0.103-0.636-0.336-1.244-0.482-1.889c-0.195-0.628-0.436-1.244-0.609-1.912   c0.431,0.518,0.838,1.069,1.211,1.643c0.3,0.609,0.68,1.199,0.885,1.861c0.52,1.291,0.704,2.709,0.689,4.118   c-0.065,1.413-0.44,2.812-1.093,4.049C383.995,198.157,383.083,199.26,381.93,199.996z"/>
	<path style="fill:#AE312F;" d="M397.762,201.476c0.717-2.576,1.309-5.07,1.45-7.591c0.078-1.258-0.023-2.503-0.23-3.742   c-0.218-1.248-0.693-2.419-1.22-3.667c0.976,0.909,1.795,2.073,2.232,3.391c0.448,1.31,0.621,2.712,0.56,4.088   c-0.096,1.373-0.371,2.723-0.844,3.994C399.239,199.217,398.622,200.434,397.762,201.476z"/>
	<path style="opacity:0.48;fill:#AE312F;" d="M161.475,245.543c4.315,1.544,8.447,3.583,12.403,5.922   c3.917,2.389,7.666,5.165,10.747,8.645c0.74,0.895,1.519,1.761,2.138,2.754c0.699,0.938,1.235,1.979,1.776,3.019   c0.989,2.119,1.7,4.408,1.855,6.78c0.299,4.768-1.465,9.471-4.568,13.105l0.171-0.406c-0.113,1.392-0.531,2.64-1.261,3.785   c-0.721,1.135-1.782,2.059-2.987,2.647c-1.21,0.61-2.532,0.799-3.823,0.915c-0.644,0.006-1.29-0.006-1.931-0.033l-1.898-0.24   l0.642-0.243c-2.192,2.413-5.193,3.664-8.269,3.981c-1.535,0.132-3.083,0.09-4.585-0.184c-0.757-0.106-1.486-0.332-2.229-0.493   c-0.719-0.271-1.453-0.521-2.158-0.816c-2.772-1.269-5.204-3.026-7.588-4.813c-2.354-1.829-4.592-3.796-6.699-5.892   c-4.236-4.164-8.126-8.681-11.497-13.567c-3.307-4.906-6.241-10.168-7.788-15.892c1.841,5.628,4.863,10.762,8.33,15.508   c3.448,4.77,7.399,9.172,11.676,13.201c4.306,3.955,8.843,7.856,14.068,10.337c0.658,0.269,1.329,0.489,1.991,0.739   c0.701,0.145,1.392,0.357,2.1,0.449c1.409,0.248,2.839,0.272,4.243,0.144c2.783-0.27,5.558-1.553,7.357-3.532l0.267-0.293   l0.376,0.05l1.768,0.236c0.587,0.027,1.177,0.041,1.762,0.042c1.152-0.099,2.317-0.257,3.327-0.764   c1.01-0.488,1.875-1.23,2.486-2.171c0.615-0.919,0.992-2.084,1.086-3.144l0.021-0.232l0.151-0.174   c2.844-3.285,4.594-7.769,4.322-12.184c-0.127-2.211-0.728-4.378-1.632-6.416c-0.496-1.002-0.986-2.01-1.642-2.927   c-0.573-0.968-1.313-1.824-2.013-2.708c-2.921-3.458-6.582-6.247-10.368-8.77C169.759,249.45,165.702,247.303,161.475,245.543z"/>
	<path style="fill:#AE312F;" d="M174.215,291.778c-0.567-2.593-1.253-5.038-2.336-7.308c-0.508-1.149-1.176-2.21-1.906-3.235   c-0.715-1.052-1.628-1.932-2.542-2.919c1.218,0.515,2.411,1.237,3.338,2.237c0.961,0.964,1.75,2.108,2.324,3.343   c0.567,1.238,0.977,2.543,1.169,3.877C174.455,289.104,174.488,290.465,174.215,291.778z"/>
	<path style="fill:#AE312F;" d="M185.379,285.34c-0.968-2.201-1.906-4.284-3.118-6.194c-0.596-0.959-1.296-1.831-2.049-2.67   c-0.77-0.832-1.661-1.523-2.636-2.256c1.184,0.211,2.354,0.713,3.334,1.474c0.982,0.756,1.814,1.698,2.484,2.731   c0.641,1.05,1.158,2.166,1.495,3.334C185.228,282.921,185.439,284.126,185.379,285.34z"/>
	<path style="fill:#AE312F;" d="M340.315,401.811c0.567-1.618,0.452-3.035-0.249-4.251c-0.308-0.636-0.817-1.19-1.302-1.788   c-0.278-0.268-0.527-0.579-0.808-0.868c-0.282-0.289-0.571-0.579-0.837-0.927c0.834,0.183,1.618,0.525,2.334,1.004   c0.698,0.502,1.356,1.119,1.793,1.937c0.434,0.803,0.654,1.784,0.464,2.699C341.541,400.526,341.04,401.338,340.315,401.811z"/>
	<path style="fill:#AE312F;" d="M171.508,304.103c0,0-4.483,3.603-3.442,4.403c1.041,0.801,3.067-1.78,3.067-1.78   s-1.706,2.901-0.665,3.701c1.04,0.801,2.082-2.642,2.082-2.642s-1.761,4.243-1.041,5.604c0.721,1.361,2.708,0.32,2.708,0.32   L171.508,304.103z"/>
	<path style="opacity:0.48;fill:#AE312F;" d="M304.789,172.047c1.001-0.614,2.038-1.168,3.099-1.68c1.064-0.505,2.141-1,3.313-1.311   c0.582-0.161,1.188-0.291,1.893-0.222c0.763,0.019,1.553,0.929,1.318,1.756c-0.152,0.788-0.604,1.281-1.018,1.754   c-0.434,0.467-0.896,0.851-1.421,1.219l-0.45-1.058c2.104-0.499,4.184-0.969,6.391-1.182c0.58-0.026,1.061-0.13,1.89,0.096   c0.108,0.032,0.305,0.169,0.424,0.287c0.131,0.11,0.241,0.444,0.238,0.653c-0.022,0.155-0.069,0.332-0.13,0.464l-0.169,0.262   c-0.23,0.295-0.455,0.487-0.681,0.677c-0.906,0.723-1.826,1.266-2.79,1.811l-0.134-1.193c1.556,0.483,2.994,1.109,4.435,1.777   c1.438,0.663,2.817,1.445,4.164,2.268c1.34,0.834,2.67,1.688,3.893,2.685c1.243,0.967,2.417,2.02,3.521,3.131   c-1.268-0.925-2.51-1.868-3.84-2.682c-1.319-0.826-2.643-1.637-4.02-2.35c-1.366-0.736-2.782-1.365-4.198-1.984   c-1.412-0.612-2.883-1.152-4.315-1.597l-1.432-0.445l1.299-0.749c0.89-0.513,1.809-1.078,2.565-1.7   c0.183-0.153,0.357-0.322,0.454-0.449c0.015-0.025,0.033-0.049,0.053-0.071c-0.014,0.008-0.03,0.053-0.013,0.081   c-0.044,0.091,0.065,0.264,0.096,0.293c0.006,0.048,0.108,0.08,0.089,0.072c-0.205-0.061-0.816-0.071-1.294-0.024   c-1.021,0.076-2.069,0.253-3.11,0.423c-1.043,0.172-2.091,0.368-3.124,0.583l-2.871,0.596l2.421-1.654   c0.854-0.583,1.888-1.379,2.121-2.174c0.106-0.354-0.107-0.659-0.507-0.729c-0.453-0.076-1.031-0.021-1.578,0.101   C309.142,170.259,306.948,171.153,304.789,172.047z"/>
	<path style="opacity:0.48;fill:#AE312F;" d="M214.791,347.807c0.262,1.15,0.587,2.284,1.015,3.365   c0.427,1.038,1.025,2.195,1.903,2.577c0.465,0.16,0.81,0.035,0.994-0.385c0.194-0.428,0.239-1,0.243-1.55   c-0.007-1.116-0.188-2.28-0.435-3.379l-0.601-2.672l1.618,2.245c0.747,1.037,1.576,2.061,2.471,2.958   c0.445,0.45,0.911,0.879,1.399,1.211c0.475,0.335,1.034,0.546,1.302,0.454c0.12-0.033,0.129-0.065,0.216-0.24   c0.068-0.175,0.094-0.45,0.084-0.732c-0.018-0.572-0.143-1.194-0.3-1.805c-0.33-1.221-0.766-2.464-1.266-3.643l-0.388-0.914   l0.984,0.078c1.2,0.095,2.51,0.016,3.681-0.333c1.174-0.346,2.247-1.038,2.819-2.109c0.571-1.066,0.684-2.377,0.558-3.656   c-0.147-1.285-0.507-2.555-0.926-3.805c0.592,1.179,1.079,2.421,1.356,3.738c0.256,1.305,0.313,2.756-0.31,4.067   c-0.604,1.323-1.871,2.241-3.179,2.706c-1.331,0.477-2.694,0.651-4.117,0.567l0.595-0.836c0.576,1.236,1.088,2.471,1.452,3.802   c0.178,0.666,0.333,1.346,0.368,2.097c0.012,0.376,0.005,0.775-0.148,1.226c-0.125,0.44-0.596,0.982-1.142,1.082   c-1.061,0.212-1.787-0.286-2.381-0.667c-0.599-0.422-1.105-0.901-1.578-1.4c-0.932-1.015-1.737-2.082-2.486-3.225l1.018-0.427   c0.197,1.212,0.314,2.4,0.251,3.641c-0.048,0.618-0.108,1.252-0.436,1.891c-0.164,0.311-0.465,0.641-0.872,0.763   c-0.404,0.12-0.786,0.051-1.119-0.094c-0.67-0.311-1.035-0.883-1.333-1.414c-0.289-0.547-0.495-1.115-0.668-1.688   C215.095,350.155,214.89,348.984,214.791,347.807z"/>
	<path style="fill:#FFC893;" d="M378.882,306.289c-7.499,56.655-79.297,62.845-79.297,62.845   c-10.961-56.466-56.633-60.172-56.633-60.172s6.346-1.032,4.959-4.304c-0.954-2.285-10.221,0.177-14.226,1.497   c-0.044-0.699,4.314-3.678,2.489-5.591c-1.466-3.336-3.162-7.455-4.071-9.973c-1.431-3.927-2.662-7.91-3.705-11.959   c-3.983-15.465-5.336-31.395,0.854-46.438c11.138-27.068,40.902-42.444,69.501-40.492c20.845,1.423,39.135,12.013,53.222,27.061   C372.174,240.342,382.735,277.151,378.882,306.289z"/>
	<path style="opacity:0.48;fill:#AE312F;" d="M233.245,306.555c0.778-0.899,1.566-1.79,2.198-2.766   c0.32-0.478,0.622-0.976,0.806-1.474c0.19-0.507,0.203-0.97-0.037-1.11c-0.248-0.208-0.778-0.289-1.289-0.25   c-0.523,0.039-1.068,0.144-1.609,0.307c-1.086,0.299-2.166,0.736-3.225,1.213c-2.133,0.935-4.213,2.04-6.3,3.138l-6.274,3.35   c1.814-1.549,3.734-2.969,5.743-4.254c2.003-1.297,4.088-2.472,6.289-3.463c1.112-0.47,2.238-0.925,3.451-1.213   c0.603-0.145,1.235-0.239,1.895-0.252c0.648,0.005,1.408,0.066,2.049,0.678c0.324,0.314,0.462,0.814,0.416,1.198   c-0.032,0.393-0.159,0.719-0.308,1.012c-0.305,0.583-0.687,1.066-1.091,1.523C235.118,305.075,234.229,305.877,233.245,306.555z"/>
	<path style="opacity:0.48;fill:#AE312F;" d="M303.922,375.26c-0.727-0.51-1.433-1.05-2.11-1.629   c-0.677-0.582-1.324-1.189-1.888-1.911l-0.015-0.019l-0.007-0.037c-1.517-7.416-3.534-14.741-6.583-21.644   c-0.805-1.704-1.543-3.438-2.468-5.08c-0.835-1.688-1.8-3.303-2.766-4.917c-2.005-3.178-4.178-6.258-6.664-9.077   c-4.964-5.627-10.801-10.503-17.359-14.177c-3.274-1.84-6.711-3.389-10.252-4.645c-3.535-1.24-7.201-2.271-10.893-2.732   l-2.927-0.366l2.893-0.49c0.896-0.152,1.817-0.4,2.661-0.749c0.829-0.352,1.665-0.836,2.04-1.548   c0.353-0.667,0.154-1.716-0.558-2.036c-0.751-0.374-1.74-0.38-2.663-0.339c-1.881,0.118-3.757,0.536-5.604,1.011   c-1.853,0.473-3.666,1.08-5.491,1.669c1.787-0.682,3.57-1.405,5.413-1.945c1.838-0.552,3.702-1.051,5.643-1.253   c0.967-0.07,1.976-0.148,2.985,0.287c0.505,0.187,0.954,0.778,1.051,1.277c0.152,0.521,0.131,1.142-0.13,1.646   c-0.525,1.018-1.482,1.538-2.37,1.956c-0.918,0.403-1.851,0.682-2.838,0.875l-0.034-0.856c7.663,0.839,14.963,3.493,21.674,7.163   c6.714,3.68,12.745,8.604,17.723,14.42c4.97,5.825,8.959,12.456,11.847,19.517c2.928,7.051,4.771,14.491,5.946,21.986l-0.022-0.056   c0.501,0.7,1.128,1.343,1.759,1.956C302.553,374.131,303.226,374.71,303.922,375.26z"/>
	<path style="fill:#FFC893;" d="M254.751,202.667c-0.122,0.077,1.139-9.434,3.265-10.346c2.126-0.911,0.911,8.506,0.911,8.506   s1.139-5.923,2.962-6.227c1.823-0.304,0.545,3.912,0.545,3.912s3.022-4.876,6.365-2.61c3.343,2.267,0.153,6.765,0.153,6.765   l-10.556,1.653L254.751,202.667z"/>
	<path style="opacity:0.48;fill:#AE312F;" d="M271.49,211.497c0.974-1.2,2.03-2.339,3.183-3.384c1.171-1.01,2.347-2.107,4.024-2.517   c0.422-0.083,0.907-0.081,1.37,0.126c0.51,0.214,0.776,0.9,0.697,1.35c-0.102,0.938-0.529,1.629-0.928,2.323   c-0.847,1.358-1.831,2.565-2.896,3.738l-0.598-0.931c1.32-0.457,2.636-0.797,4.026-0.986c0.695-0.082,1.401-0.147,2.138-0.074   c0.725,0.074,1.517,0.229,2.212,0.771c0.158,0.155,0.321,0.302,0.462,0.478c0.116,0.21,0.249,0.412,0.321,0.648   c0.128,0.505,0.039,1.063-0.188,1.436c-0.437,0.779-1.044,1.222-1.629,1.64c-1.2,0.794-2.453,1.338-3.776,1.802l-0.324-1.264   c1.264-0.169,2.461-0.107,3.68,0.192c1.199,0.31,2.383,0.947,3.205,1.953c0.215,0.228,0.402,0.551,0.559,0.885   c0.053,0.205,0.138,0.386,0.135,0.618c-0.026,0.236-0.02,0.495-0.159,0.688c-0.5,0.831-1.218,0.976-1.799,1.166   c-1.218,0.312-2.382,0.321-3.577,0.289l0.321-0.931c1.125,0.961,1.914,2.055,2.649,3.222c0.715,1.168,1.292,2.407,1.766,3.678   c0.46,1.277,0.787,2.592,1.048,3.912c0.133,0.659,0.21,1.329,0.314,1.991l0.163,2.005c-0.225-1.321-0.48-2.631-0.823-3.917   c-0.355-1.282-0.773-2.543-1.312-3.749c-0.527-1.208-1.132-2.38-1.867-3.461c-0.728-1.063-1.597-2.113-2.546-2.849l-1.173-0.91   l1.495-0.021c1.089-0.016,2.239-0.105,3.242-0.37c0.486-0.124,0.97-0.384,1.044-0.575c0.123-0.106-0.074-0.522-0.398-0.892   c-0.649-0.771-1.579-1.263-2.594-1.513c-1.008-0.24-2.141-0.272-3.143-0.122l-6.287,0.944l5.962-2.208   c1.197-0.443,2.412-0.998,3.467-1.66c0.509-0.337,0.998-0.743,1.219-1.141c0.132-0.2,0.112-0.348,0.103-0.496   c-0.024-0.079-0.093-0.159-0.121-0.25l-0.233-0.246c-0.771-0.605-2.167-0.628-3.407-0.483c-1.27,0.151-2.569,0.465-3.789,0.868   l-2.25,0.742l1.652-1.673c1.054-1.068,2.086-2.218,2.928-3.446c0.403-0.608,0.806-1.283,0.89-1.892   c0.033-0.311-0.027-0.473-0.237-0.6c-0.24-0.113-0.56-0.152-0.892-0.099c-1.365,0.263-2.69,1.196-3.884,2.115   C273.727,209.366,272.589,210.411,271.49,211.497z"/>
	<path style="fill:#FFFFFF;" d="M114.663,184.492c-0.773,0.995-0.774,2.515-0.003,3.511c0.788,1.018,2.147,1.385,3.419,1.585   c0.685,0.108,1.387,0.186,2.071,0.073c1.801-0.298,3.177-1.91,3.666-3.669c0.094-0.337,0.16-0.698,0.066-1.035   c-0.079-0.281-0.263-0.52-0.462-0.734C121.366,182.005,116.601,181.998,114.663,184.492z"/>
	<path style="fill:#FFFFFF;" d="M112.886,192.146c-0.746-0.294-1.634-0.355-2.322,0.058c-0.687,0.413-1.049,1.392-0.616,2.067   c0.141,0.22,0.349,0.391,0.573,0.526c0.756,0.455,1.826,0.537,2.489-0.046C114.706,193.262,112.886,192.146,112.886,192.146z"/>
	<path style="fill:#FFFFFF;" d="M159.524,393.812c0.271,0.1,0.564,0.116,0.853,0.126c0.472,0.016,1.001-0.006,1.332-0.344   c0.188-0.192,0.279-0.457,0.348-0.716c0.304-1.14-1.161-1.525-2.029-1.185C159.171,392.03,158.237,393.338,159.524,393.812z"/>
	<path style="fill:#FFFFFF;" d="M163.611,397.739c-0.993,0.072-2.017,0.579-2.423,1.488c-0.33,0.739-0.194,1.629,0.213,2.328   c0.407,0.7,1.055,1.231,1.747,1.649c1.255,0.758,2.758,1.197,4.199,0.929c1.441-0.268,2.774-1.343,3.082-2.776   C171.146,398.017,165.749,397.584,163.611,397.739z"/>
	<path style="fill:#AE312F;" d="M230.91,369.009c-0.067,7.874-3.023,15.695-8.103,21.715c-4.824-3.05-9.796-6.813-14.902-11.341   c4.408-3.319,8.573-6.826,12.322-10.979c1.33-1.478,2.674-3.05,4.501-3.883c1.814-0.82,4.273-0.618,5.415,1.008   C230.843,366.524,230.924,367.8,230.91,369.009z"/>
	<path style="fill:#AE312F;" d="M200.072,311.565c-2.069,1.868-4.783,2.835-7.457,3.615c-6.195,1.774-12.577,2.714-19.014,3.158   c-1.519-6.087-2.486-11.422-3.091-15.439c3.951,0.161,7.901,0.188,11.946-0.282c5.119-0.591,10.226-1.68,15.385-1.559   c1.115,0.027,2.298,0.134,3.238,0.766c0.766,0.524,1.277,1.371,1.546,2.258C203.431,306.741,202.128,309.698,200.072,311.565z"/>
	<path style="fill:#AE312F;" d="M201.429,335.188c-0.779,1.546-2.163,2.688-3.601,3.668c-4.448,3.064-9.554,5.012-14.7,6.692   c-2.163-4.609-3.977-9.204-5.509-13.639c6.356-0.927,12.524-3.171,19-3.05c1.599,0.027,3.346,0.282,4.421,1.451   C202.208,331.6,202.195,333.643,201.429,335.188z"/>
	<path style="fill:#AE312F;" d="M152.88,255.787c0.094,1.33-0.779,2.54-1.747,3.453c-2.983,2.822-7.108,3.978-10.83,5.724   c-3.118,1.465-5.738,3.373-8.197,5.603c-2.325-3.198-4.784-7.484-6.705-12.282c6.033-4.394,13.8-6.235,21.325-6.127   c1.303,0.027,2.66,0.108,3.856,0.645C151.779,253.355,152.799,254.471,152.88,255.787z"/>
	<path style="fill:#AE312F;" d="M149.548,231.385c-0.444,2.19-3.185,3.023-5.415,2.902c-4.085-0.215-7.861-2.123-11.664-3.615   c-2.365-0.927-4.77-1.505-7.175-2.002c0.551-0.9,1.169-1.787,1.881-2.634c1.814-2.176,3.951-4.165,6.289-5.993   c4.837,1.277,9.419,3.507,13.383,6.584C148.366,227.811,149.924,229.491,149.548,231.385z"/>
	<path style="fill:#AE312F;" d="M391.109,148.988c-1.451,0.39-2.943,0.699-4.354,1.223c-2.338,0.873-4.381,2.324-6.571,3.52   c-2.177,1.196-4.622,2.163-7.095,1.881c-2.473-0.269-4.905-2.11-5.133-4.596c-0.188-2.204,1.317-4.192,2.956-5.684   c2.271-2.083,4.918-3.682,7.673-5.066C383.584,142.807,387.696,145.777,391.109,148.988z"/>
	<path style="fill:#AE312F;" d="M359.263,133.845c-1.586,1.115-3.171,2.231-4.488,3.615c-3.641,3.816-4.985,9.339-8.344,13.41   c-0.564,0.699-1.25,1.37-2.123,1.558c-1.115,0.242-2.271-0.403-2.929-1.317c-0.658-0.927-0.9-2.083-1.034-3.211   c-0.349-3.185,0.134-6.41,1.209-9.433c0.779-2.137,1.841-4.112,3.05-5.993C349.4,132.501,354.318,132.917,359.263,133.845z"/>
	<path style="fill:#AE312F;" d="M329.714,133.589c-0.013,0.014-0.013,0.027-0.027,0.04c-1.666,2.459-2.862,5.241-3.521,8.13   c-0.309,1.357-0.511,2.782-1.236,3.991c-0.712,1.196-2.137,2.11-3.48,1.747c-0.699-0.188-1.263-0.685-1.747-1.21   c-2.083-2.271-3.077-5.375-3.212-8.452c-0.013-0.457-0.027-0.941-0.013-1.452C320.59,135.256,325.025,134.275,329.714,133.589z"/>
</g>















</svg>
